<svg width="24" height="24" viewBox="0 0 24 24" fill="none" xmlns="http://www.w3.org/2000/svg">
<path d="M12 -6.10352e-05C9.62666 -6.10352e-05 7.30658 0.703729 5.33318 2.02231C3.35978 3.34089 1.82171 5.21504 0.913454 7.40776C0.00519945 9.60049 -0.232441 12.0133 0.230583 14.3411C0.693607 16.6689 1.8365 18.8071 3.51474 20.4853C5.19297 22.1635 7.33117 23.3064 9.65895 23.7694C11.9867 24.2325 14.3995 23.9948 16.5923 23.0866C18.785 22.1783 20.6591 20.6402 21.9777 18.6668C23.2963 16.6935 24.0001 14.3734 24.0001 12C23.9965 8.81848 22.731 5.76831 20.4814 3.51865C18.2317 1.26898 15.1816 0.00353855 12 -6.10352e-05ZM12 22.4C9.94311 22.4 7.93237 21.7901 6.2221 20.6473C4.51182 19.5045 3.17882 17.8803 2.39167 15.9799C1.60451 14.0795 1.39856 11.9884 1.79984 9.97104C2.20113 7.95363 3.19164 6.10052 4.64611 4.64604C6.10058 3.19157 7.95369 2.20107 9.9711 1.79978C11.9885 1.39849 14.0796 1.60445 15.98 2.3916C17.8803 3.17875 19.5046 4.51175 20.6474 6.22203C21.7901 7.93231 22.4001 9.94305 22.4001 12C22.3969 14.7573 21.3002 17.4007 19.3505 19.3504C17.4008 21.3001 14.7573 22.3968 12 22.4Z" fill="#505050"/>
<path d="M13.6001 16.8H12.8001V9.59993C12.8001 9.38776 12.7158 9.18427 12.5658 9.03424C12.4158 8.88421 12.2123 8.79993 12.0001 8.79993H10.4001C10.1879 8.79993 9.98444 8.88421 9.83441 9.03424C9.68438 9.18427 9.6001 9.38776 9.6001 9.59993C9.6001 9.8121 9.68438 10.0156 9.83441 10.1656C9.98444 10.3156 10.1879 10.3999 10.4001 10.3999H11.2001V16.8H10.4001C10.1879 16.8 9.98444 16.8842 9.83441 17.0343C9.68438 17.1843 9.6001 17.3878 9.6001 17.6C9.6001 17.8121 9.68438 18.0156 9.83441 18.1656C9.98444 18.3157 10.1879 18.4 10.4001 18.4H13.6001C13.8123 18.4 14.0158 18.3157 14.1658 18.1656C14.3158 18.0156 14.4001 17.8121 14.4001 17.6C14.4001 17.3878 14.3158 17.1843 14.1658 17.0343C14.0158 16.8842 13.8123 16.8 13.6001 16.8Z" fill="#505050"/>
<path d="M12 7.19998C12.4418 7.19998 12.8 6.84181 12.8 6.39998C12.8 5.95815 12.4418 5.59998 12 5.59998C11.5581 5.59998 11.2 5.95815 11.2 6.39998C11.2 6.84181 11.5581 7.19998 12 7.19998Z" fill="#505050"/>
</svg>
