<svg width="30" height="30" viewBox="0 0 30 30" fill="none" xmlns="http://www.w3.org/2000/svg">
<path fill-rule="evenodd" clip-rule="evenodd" d="M14.9167 0H15.0835C18.2884 0 20.8084 8.72268e-08 22.7738 0.263416C24.7889 0.535613 26.387 1.10196 27.6426 2.35757C28.8982 3.61319 29.4645 5.21125 29.7353 7.22638C30.0002 9.19322 30.0002 11.7103 30.0002 14.9167V15.0835C30.0002 18.2898 30.0002 20.8084 29.7367 22.7738C29.4645 24.7889 28.8982 26.387 27.644 27.6426C26.3899 28.8982 24.7889 29.4645 22.7738 29.7353C20.8084 30.0002 18.2898 30.0002 15.0835 30.0002H14.9167C11.7118 30.0002 9.19175 30.0002 7.22638 29.7367C5.21125 29.4645 3.61319 28.8982 2.35757 27.644C1.10196 26.387 0.535612 24.7889 0.264879 22.7738C0 20.8084 0 18.2898 0 15.0835V14.9167C0 11.7118 -8.72268e-08 9.19322 0.263416 7.22638C0.535612 5.21125 1.10196 3.61319 2.35611 2.35757C3.61465 1.10196 5.21125 0.535612 7.22638 0.264879C9.19175 0.0014634 11.7103 0.00146366 14.9167 0.00146366V0ZM7.51906 2.43952C5.74832 2.67806 4.69027 3.13026 3.91026 3.91026C3.13026 4.69027 2.67806 5.74832 2.43952 7.51906C2.19806 9.322 2.19513 11.6927 2.19513 15.0001C2.19513 18.3074 2.19806 20.6782 2.43952 22.4811C2.67806 24.2518 3.13026 25.3113 3.91026 26.0914C4.69027 26.8714 5.74832 27.3221 7.51906 27.5606C9.322 27.8036 11.6927 27.805 15.0001 27.805C18.3074 27.805 20.6782 27.8036 22.4811 27.5606C24.2518 27.3221 25.3099 26.8714 26.0899 26.0914C26.8699 25.3113 27.3221 24.2533 27.5606 22.4811C27.8021 20.6782 27.805 18.3089 27.805 15.0001C27.805 11.6913 27.8021 9.322 27.5606 7.51906C27.3221 5.74832 26.8714 4.69027 26.0899 3.91026C25.3099 3.13026 24.2518 2.67806 22.4811 2.43952C20.6782 2.19952 18.3074 2.19513 15.0001 2.19513C11.6927 2.19513 9.322 2.19806 7.51906 2.43952Z" fill="#505050"/>
<path fill-rule="evenodd" clip-rule="evenodd" d="M8.37508 9.51373C8.59835 9.50535 8.81886 9.56532 9.00714 9.68561C9.19542 9.8059 9.34251 9.98079 9.42874 10.1869L13.0873 18.9674C13.1995 19.2362 13.2003 19.5385 13.0895 19.8079C12.9788 20.0773 12.7656 20.2916 12.4968 20.4038C12.228 20.516 11.9257 20.5168 11.6563 20.406C11.387 20.2953 11.1726 20.0821 11.0605 19.8133L10.4268 18.2928H7.01117L6.52824 19.7372C6.43342 20.0097 6.23508 20.234 5.97615 20.3614C5.71722 20.4888 5.41853 20.5091 5.14475 20.4179C4.87096 20.3267 4.64411 20.1313 4.5133 19.8741C4.38248 19.6169 4.35823 19.3185 4.44579 19.0435L7.37263 10.263C7.44347 10.0508 7.57744 9.8654 7.7566 9.73149C7.93575 9.59758 8.15155 9.5216 8.37508 9.51373ZM7.74288 16.0991H9.51216L8.52874 13.7386L7.74288 16.0991ZM16.6976 9.51227H18.6585C19.5318 9.51227 20.3693 9.85918 20.9868 10.4767C21.6043 11.0942 21.9512 11.9317 21.9512 12.805C21.9512 13.6782 21.6043 14.5158 20.9868 15.1333C20.3693 15.7508 19.5318 16.0977 18.6585 16.0977H16.8293V19.3904C16.8293 19.6815 16.7136 19.9606 16.5078 20.1665C16.302 20.3723 16.0228 20.4879 15.7317 20.4879C15.4406 20.4879 15.1614 20.3723 14.9556 20.1665C14.7498 19.9606 14.6341 19.6815 14.6341 19.3904V11.5757C14.6327 11.3796 14.6312 11.0635 14.7234 10.7767C14.8126 10.5019 14.9656 10.2522 15.1698 10.0479C15.3741 9.8437 15.6238 9.69072 15.8985 9.60154C16.1854 9.50934 16.5015 9.5108 16.6976 9.51227ZM16.8293 13.9025H18.6585C18.9496 13.9025 19.2288 13.7869 19.4346 13.5811C19.6405 13.3752 19.7561 13.0961 19.7561 12.805C19.7561 12.5139 19.6405 12.2347 19.4346 12.0289C19.2288 11.823 18.9496 11.7074 18.6585 11.7074H16.8293V13.9025ZM24.5122 9.51227C24.8033 9.51227 25.0825 9.6279 25.2883 9.83374C25.4942 10.0396 25.6098 10.3187 25.6098 10.6098V19.3904C25.6098 19.6815 25.4942 19.9606 25.2883 20.1665C25.0825 20.3723 24.8033 20.4879 24.5122 20.4879C24.2211 20.4879 23.942 20.3723 23.7361 20.1665C23.5303 19.9606 23.4147 19.6815 23.4147 19.3904V10.6098C23.4147 10.3187 23.5303 10.0396 23.7361 9.83374C23.942 9.6279 24.2211 9.51227 24.5122 9.51227Z" fill="#505050"/>
</svg>
