<svg width="36" height="34" viewBox="0 0 36 34" fill="none" xmlns="http://www.w3.org/2000/svg">
<path d="M33.9282 30.1989H33.8656V29.3888C33.8656 28.7081 33.3118 28.1543 32.631 28.1543H31.1605V27.0373C31.1605 26.5067 30.7433 26.0729 30.2199 26.0436V15.5441C30.7433 15.5148 31.1605 15.0809 31.1605 14.5503V13.4334H32.5872C33.1308 13.4334 33.573 12.9912 33.573 12.4475V11.3948H34.3229C34.7642 11.3948 35.1232 11.0358 35.1232 10.5946V9.68476C35.1233 9.54048 35.0844 9.39887 35.0105 9.27493C34.9366 9.151 34.8306 9.04937 34.7036 8.98082L22.8912 2.59287C22.8316 2.56059 22.7663 2.54037 22.6989 2.53337C22.6315 2.52638 22.5633 2.53274 22.4984 2.55209C22.4335 2.57144 22.373 2.60341 22.3204 2.64616C22.2679 2.68891 22.2242 2.74161 22.192 2.80124C22.1598 2.86082 22.1397 2.92617 22.1327 2.99354C22.1257 3.06092 22.1321 3.12901 22.1514 3.19393C22.1708 3.25885 22.2027 3.31931 22.2455 3.37188C22.2882 3.42445 22.3408 3.46809 22.4004 3.5003L34.0915 9.82267V10.3631H1.0713V9.82713L17.835 1.03135L20.2746 2.35078C20.3342 2.38304 20.3996 2.40323 20.467 2.41022C20.5344 2.4172 20.6025 2.41084 20.6674 2.39148C20.7323 2.37213 20.7928 2.34018 20.8454 2.29744C20.8979 2.2547 20.9416 2.20202 20.9738 2.14242C21.006 2.08283 21.0262 2.01749 21.0331 1.95011C21.0401 1.88273 21.0337 1.81464 21.0144 1.74972C20.995 1.68481 20.9631 1.62434 20.9204 1.57177C20.8777 1.5192 20.825 1.47557 20.7654 1.44335L18.3257 0.123853C18.1775 0.0436041 18.0119 0.00107414 17.8434 2.00821e-05C17.675 -0.00103397 17.5088 0.0394203 17.3597 0.117809L0.468173 8.97849C0.338726 9.04609 0.23031 9.14791 0.154734 9.27287C0.0791583 9.39783 0.0393199 9.54113 0.0395581 9.68717V10.5945C0.0395581 11.0358 0.398603 11.3948 0.839855 11.3948H1.58974V12.4475C1.58974 12.9911 2.03196 13.4334 2.57561 13.4334H4.00231V14.5503C4.00231 15.0809 4.41945 15.5148 4.94284 15.5441V22.3792C4.94284 22.516 4.99719 22.6472 5.09393 22.744C5.19067 22.8407 5.32187 22.8951 5.45868 22.8951C5.59549 22.8951 5.72669 22.8407 5.82343 22.744C5.92017 22.6472 5.97452 22.516 5.97452 22.3792V15.547H7.62524V26.0408H5.97458V24.8037C5.97458 24.5188 5.74362 24.2879 5.45875 24.2879C5.17388 24.2879 4.94291 24.5188 4.94291 24.8037V26.0436C4.41952 26.0729 4.00238 26.5067 4.00238 27.0373V28.1543H2.53179C1.85106 28.1543 1.29718 28.7081 1.29718 29.3888V30.1989H1.23461C0.553814 30.1989 0 30.7527 0 31.4335V32.5125C0 32.9331 0.342219 33.2754 0.762799 33.2754H34.4C34.8206 33.2754 35.1628 32.9331 35.1628 32.5125V31.4335C35.1628 30.7527 34.609 30.1989 33.9282 30.1989ZM2.62148 12.4017V11.3948H32.5413V12.4017H2.62148ZM30.1287 27.0724V28.1542H26.5969V27.0724H30.1287ZM27.5375 26.0407V15.5469H29.1882V26.0407H27.5375ZM26.5969 14.5153V13.4334H30.1287V14.5153H26.5969ZM23.0323 26.0436V15.5441C23.5557 15.5148 23.9729 15.0809 23.9729 14.5503V13.4334H25.5652V14.5503C25.5652 15.0809 25.9824 15.5148 26.5057 15.5441V26.0436C25.9824 26.0729 25.5652 26.5067 25.5652 27.0373V28.1543H23.9729V27.0373C23.9729 26.5067 23.5557 26.0729 23.0323 26.0436ZM22.9411 27.0724V28.1542H19.4093V27.0724H22.9411ZM20.3498 26.0407V15.5469H22.0006V26.0407H20.3498ZM19.4093 14.5153V13.4334H22.9411V14.5153H19.4093ZM15.8447 26.0436V15.5441C16.3681 15.5148 16.7852 15.0809 16.7852 14.5503V13.4334H18.3776V14.5503C18.3776 15.0809 18.7947 15.5148 19.3181 15.5441V26.0436C18.7947 26.0729 18.3776 26.5067 18.3776 27.0373V28.1543H16.7852V27.0373C16.7852 26.5067 16.3681 26.0729 15.8447 26.0436ZM15.3288 27.0724H15.7535V28.1542H12.2217V27.0724H15.3288ZM13.1622 26.0407V15.5469H14.8129V26.0407H13.1622ZM12.2217 14.5153V13.4334H15.7535V14.5153H12.2217ZM8.65705 26.0436V15.5441C9.18044 15.5148 9.59759 15.0809 9.59759 14.5503V13.4334H11.1899V14.5503C11.1899 15.0809 11.6071 15.5148 12.1305 15.5441V26.0436C11.6071 26.0729 11.1899 26.5067 11.1899 27.0373V28.1543H9.59759V27.0373C9.59759 26.5067 9.18044 26.0729 8.65705 26.0436ZM5.03405 14.5153V13.4334H8.56585V14.5153H5.03405ZM5.03405 27.0724H8.56592V28.1542H5.03405V27.0724ZM2.32892 29.3888C2.32899 29.3351 2.35039 29.2835 2.38842 29.2455C2.42645 29.2074 2.47801 29.186 2.53179 29.186H32.631C32.6848 29.186 32.7364 29.2074 32.7744 29.2454C32.8124 29.2835 32.8338 29.3351 32.8339 29.3888V30.1989H2.32892V29.3888ZM34.1311 32.2436H1.03174V31.4335C1.03181 31.3797 1.05321 31.3282 1.09124 31.2901C1.12927 31.2521 1.18083 31.2307 1.23461 31.2306H33.9282C33.982 31.2307 34.0335 31.2521 34.0716 31.2901C34.1096 31.3281 34.131 31.3797 34.1311 31.4335V32.2436Z" fill="black"/>
</svg>
