<svg width="27" height="31" viewBox="0 0 27 31" fill="none" xmlns="http://www.w3.org/2000/svg">
<path d="M4.02364 18.2267H3.10165V20.0603C3.10165 20.2048 3.04424 20.3434 2.94205 20.4456C2.83985 20.5478 2.70125 20.6052 2.55673 20.6052C2.41221 20.6052 2.27361 20.5478 2.17142 20.4456C2.06923 20.3434 2.01182 20.2048 2.01182 20.0603V18.2267H1.08983C0.800875 18.2264 0.523841 18.1115 0.319522 17.9072C0.115202 17.7028 0.000288519 17.4258 0 17.1369V3.95322C0.000288519 3.66427 0.115202 3.38723 0.319522 3.18291C0.523841 2.97859 0.800875 2.86368 1.08983 2.86339H2.01182V1.02976C2.01182 0.885239 2.06923 0.746637 2.17142 0.644447C2.27361 0.542255 2.41221 0.484846 2.55673 0.484846C2.70125 0.484846 2.83985 0.542255 2.94205 0.644447C3.04424 0.746637 3.10165 0.885239 3.10165 1.02976V2.86339H4.02364C4.31259 2.86368 4.58963 2.97859 4.79395 3.18291C4.99827 3.38723 5.11318 3.66427 5.11347 3.95322V17.1374C5.11318 17.4264 4.99827 17.7034 4.79395 17.9077C4.58963 18.112 4.31259 18.2264 4.02364 18.2267ZM1.08983 3.95322V17.1374H4.02364L4.02419 3.95377L1.08983 3.95322ZM11.1604 24.9836H10.2384V26.8172C10.2384 26.9618 10.181 27.1004 10.0788 27.2026C9.97659 27.3047 9.83799 27.3622 9.69347 27.3622C9.54895 27.3622 9.41035 27.3047 9.30815 27.2026C9.20596 27.1004 9.14855 26.9618 9.14855 26.8172V24.9836H8.22656C7.93761 24.9833 7.66057 24.8684 7.45625 24.6641C7.25193 24.4598 7.13702 24.1827 7.13673 23.8938V10.7107C7.13702 10.4217 7.25193 10.1447 7.45625 9.94039C7.66057 9.73607 7.93761 9.62115 8.22656 9.62086H9.14855V7.78669C9.14855 7.64217 9.20596 7.50356 9.30815 7.40137C9.41035 7.29918 9.54895 7.24177 9.69347 7.24177C9.83799 7.24177 9.97659 7.29918 10.0788 7.40137C10.181 7.50356 10.2384 7.64217 10.2384 7.78669V9.62086H11.1604C11.4493 9.62115 11.7264 9.73607 11.9307 9.94039C12.135 10.1447 12.2499 10.4217 12.2502 10.7107V23.8938C12.2499 24.1827 12.135 24.4598 11.9307 24.6641C11.7264 24.8684 11.4493 24.9833 11.1604 24.9836ZM8.22656 10.7107V23.8938H11.1604L11.1609 10.7107H8.22656ZM18.2966 21.1872H17.3746V23.0208C17.3746 23.1654 17.3172 23.304 17.215 23.4061C17.1128 23.5083 16.9742 23.5657 16.8297 23.5657C16.6851 23.5657 16.5465 23.5083 16.4443 23.4061C16.3421 23.304 16.2847 23.1654 16.2847 23.0208V21.1872H15.3627C15.0738 21.1869 14.7968 21.072 14.5924 20.8677C14.3881 20.6634 14.2732 20.3863 14.2729 20.0974V6.91482C14.2732 6.62587 14.3881 6.34884 14.5924 6.14452C14.7968 5.9402 15.0738 5.82528 15.3627 5.825H16.2847V3.99137C16.2847 3.84684 16.3421 3.70824 16.4443 3.60605C16.5465 3.50386 16.6851 3.44645 16.8297 3.44645C16.9742 3.44645 17.1128 3.50386 17.215 3.60605C17.3172 3.70824 17.3746 3.84684 17.3746 3.99137V5.825H18.2966C18.5855 5.82528 18.8625 5.9402 19.0669 6.14452C19.2712 6.34884 19.3861 6.62587 19.3864 6.91482V20.0974C19.3861 20.3863 19.2712 20.6634 19.0669 20.8677C18.8625 21.072 18.5855 21.1869 18.2966 21.1872ZM15.3627 6.91482V20.0974H18.2966L18.2971 6.91428L15.3627 6.91482ZM25.4333 28.6215H24.5113V30.4551C24.5113 30.5996 24.4539 30.7382 24.3517 30.8404C24.2495 30.9426 24.1109 31 23.9664 31C23.8219 31 23.6833 30.9426 23.5811 30.8404C23.4789 30.7382 23.4215 30.5996 23.4215 30.4551V28.6215H22.4995C22.2105 28.6212 21.9335 28.5063 21.7292 28.3019C21.5249 28.0976 21.4099 27.8206 21.4097 27.5316V14.3474C21.4099 14.0585 21.5249 13.7815 21.7292 13.5771C21.9335 13.3728 22.2105 13.2579 22.4995 13.2576H23.4215V11.424C23.4215 11.2795 23.4789 11.1409 23.5811 11.0387C23.6833 10.9365 23.8219 10.8791 23.9664 10.8791C24.1109 10.8791 24.2495 10.9365 24.3517 11.0387C24.4539 11.1409 24.5113 11.2795 24.5113 11.424V13.2576H25.4333C25.7222 13.2579 25.9993 13.3728 26.2036 13.5771C26.4079 13.7815 26.5228 14.0585 26.5231 14.3474V27.5316C26.5228 27.8206 26.4079 28.0976 26.2036 28.3019C25.9993 28.5063 25.7222 28.6212 25.4333 28.6215ZM22.4995 14.3474V27.5316H25.4333L25.4338 14.348L22.4995 14.3474Z" fill="#848484"/>
</svg>
