<svg width="32" height="31" viewBox="0 0 32 31" fill="none" xmlns="http://www.w3.org/2000/svg">
<path d="M31.1244 24.2716L29.3102 18.9916C30.1847 17.2039 30.6468 15.2157 30.65 13.2153C30.6553 9.73695 29.3096 6.4481 26.8605 3.95464C24.411 1.46069 21.1469 0.0567984 17.6693 0.00170668C14.0633 -0.0552763 10.6739 1.31634 8.12569 3.86447C5.66859 6.32151 4.30576 9.56069 4.26263 13.0221C1.84091 14.8455 0.411518 17.6882 0.416215 20.7246C0.418473 22.1455 0.738285 23.5579 1.34429 24.8352L0.0946337 28.4718C-0.120181 29.097 0.0367356 29.7758 0.504191 30.2433C0.833155 30.5723 1.26687 30.7474 1.71291 30.7474C1.90058 30.7474 2.09044 30.7164 2.27561 30.6528L5.91233 29.4032C7.18956 30.0092 8.602 30.329 10.0229 30.3312H10.038C13.1196 30.3311 15.984 28.8649 17.8007 26.3838C19.6912 26.334 21.5617 25.8764 23.2527 25.0491L28.5327 26.8634C28.7478 26.9377 28.9738 26.9757 29.2013 26.9759C29.7314 26.9759 30.2468 26.7677 30.6378 26.3766C31.1932 25.8212 31.3797 25.0145 31.1244 24.2716ZM10.0379 28.4719H10.0258C8.76813 28.47 7.5192 28.16 6.41425 27.5754C6.30188 27.5159 6.17851 27.4802 6.05177 27.4703C5.92503 27.4604 5.79761 27.4766 5.67738 27.5179L1.94829 28.7993L3.22967 25.0703C3.27098 24.95 3.28719 24.8226 3.2773 24.6959C3.26742 24.5691 3.23165 24.4457 3.1722 24.3334C2.58761 23.2284 2.27756 21.9795 2.27561 20.7218C2.27249 18.6988 3.05946 16.7813 4.43565 15.3455C4.88517 18.0858 6.1912 20.611 8.21562 22.5994C10.2251 24.5731 12.751 25.8298 15.4764 26.2407C14.0373 27.6591 12.0975 28.4719 10.0379 28.4719ZM29.3229 25.0619C29.27 25.1148 29.2073 25.1292 29.1368 25.1049L23.4844 23.1626C23.3642 23.1213 23.2367 23.1051 23.11 23.1149C22.9833 23.1248 22.8599 23.1606 22.7476 23.2201C21.1337 24.0738 19.31 24.5267 17.4735 24.5295H17.4559C11.3023 24.5295 6.21939 19.5307 6.1219 13.3786C6.07278 10.2802 7.25137 7.36825 9.44045 5.17917C11.6295 2.99008 14.542 1.81192 17.6399 1.86073C23.798 1.95841 28.8001 7.0507 28.7906 13.2124C28.7878 15.0489 28.335 16.8726 27.4813 18.4864C27.4219 18.5988 27.3861 18.7221 27.3762 18.8489C27.3663 18.9756 27.3825 19.103 27.4238 19.2233L29.3661 24.8757C29.3903 24.9465 29.3758 25.0091 29.3229 25.0619Z" fill="black"/>
<path d="M22.9949 8.26688H11.918C11.4045 8.26688 10.9883 8.68315 10.9883 9.19654C10.9883 9.71 11.4046 10.1262 11.918 10.1262H22.9949C23.5084 10.1262 23.9246 9.70994 23.9246 9.19654C23.9246 8.68315 23.5084 8.26688 22.9949 8.26688ZM22.9949 12.0904H11.918C11.4045 12.0904 10.9883 12.5067 10.9883 13.0201C10.9883 13.5335 11.4046 13.9497 11.918 13.9497H22.9949C23.5084 13.9497 23.9246 13.5335 23.9246 13.0201C23.9246 12.5067 23.5084 12.0904 22.9949 12.0904ZM18.7311 15.9138H11.9179C11.4045 15.9138 10.9883 16.3301 10.9883 16.8435C10.9883 17.3569 11.4045 17.7732 11.9179 17.7732H18.731C19.2445 17.7732 19.6607 17.3569 19.6607 16.8435C19.6607 16.3301 19.2445 15.9138 18.7311 15.9138Z" fill="black"/>
</svg>
