<svg width="53" height="55" viewBox="0 0 53 55" fill="none" xmlns="http://www.w3.org/2000/svg">
<path fill-rule="evenodd" clip-rule="evenodd" d="M37.619 14.5642H36.2673V17.255H38.5539C40.3098 17.255 40.3098 14.5642 38.5539 14.5642H37.619ZM14.7913 42.5714C5.06393 42.5714 -1.98525 33.3115 0.503442 23.9884C3.09319 14.3494 14.2354 10.0669 22.5985 15.2969C22.3963 9.85211 25.1756 4.7484 29.9761 1.98179C37.0253 -2.09865 46.0704 0.326875 50.1509 7.37605C54.2061 14.4 51.7932 23.4578 44.7819 27.5382C53.9787 33.3746 53.966 47.1698 44.2513 52.7788C34.6755 58.2994 22.5732 51.6419 22.1058 40.6259C19.8697 41.9019 17.3431 42.5714 14.7913 42.5714ZM24.1523 16.4086C27.3737 19.0489 29.3571 23.0662 29.5213 27.1719C33.7154 24.7716 38.9455 24.6074 43.2659 26.6918C50.1256 23.2936 52.7154 14.7411 48.8876 8.10876C45.2114 1.7544 37.0632 -0.431101 30.7088 3.24508C26.0346 5.9359 23.4828 11.0775 24.1523 16.4086ZM24.0765 39.2742L23.5586 39.6785C23.3059 50.0122 34.5618 56.6824 43.5186 51.5155C49.873 47.8394 52.0585 39.6911 48.3949 33.3367C44.5545 26.6918 35.8251 24.7084 29.496 28.9026C29.1928 33.0083 27.2347 36.7224 24.0765 39.2742ZM14.7534 14.4884C4.59651 14.4884 -1.87155 25.5928 3.24479 34.4611C7.42629 41.7124 17.141 43.241 23.3691 37.9604C28.1948 33.8926 29.5592 26.8055 26.2999 21.146C23.9249 17.0403 19.5034 14.4884 14.7534 14.4884ZM14.7913 39.3627C10.6603 39.3627 6.81991 37.1519 4.76074 33.5894C0.288682 25.8201 6.02404 16.257 14.7534 16.257C18.8844 16.257 22.7248 18.4678 24.7839 22.0303C29.256 29.7869 23.508 39.3627 14.7913 39.3627ZM14.7534 17.7098C7.13574 17.7098 2.10783 26.0728 6.02404 32.8567C8.81592 37.6825 15.044 39.3121 19.8192 36.5455C24.645 33.7663 26.2999 27.5761 23.5207 22.763C21.7141 19.6426 18.3664 17.7098 14.7534 17.7098ZM43.1396 24.6453C42.4827 24.6453 38.0106 22.2324 31.7321 24.2916C31.3278 24.4179 30.8983 24.1779 30.7972 23.7736C30.0266 20.7164 28.3464 17.874 26.0472 15.7264C25.8956 15.5875 25.8199 15.4106 25.8072 15.2211C25.5546 8.67725 30.8604 3.20719 37.3411 3.20719C41.4721 3.20719 45.3125 5.43058 47.3716 8.99307C50.4793 14.3873 48.7992 21.2218 43.5312 24.5442C43.4049 24.6074 43.2786 24.6453 43.1396 24.6453ZM36.861 22.0176C38.9834 22.0176 41.0552 22.384 43.0512 23.1041C47.4222 20.1353 48.7739 14.3242 46.1083 9.71315C43.3291 4.91263 37.0884 3.25772 32.3132 6.02433C29.1423 7.85611 27.2221 11.2165 27.26 14.8674C29.4708 17.0024 31.1257 19.7311 32.01 22.6745C33.5765 22.2324 35.2061 22.0176 36.861 22.0176ZM36.8863 51.5408C30.8604 51.5408 25.8072 46.8414 25.3398 40.9039C25.3272 40.6638 25.4156 40.4491 25.5925 40.2975C28.5486 37.733 30.5067 34.1831 31.1004 30.2922C31.1383 30.0648 31.2773 29.8753 31.4794 29.7616C36.9116 26.9066 43.7839 28.8647 46.8663 34.2084C51.351 41.965 45.603 51.5408 36.8863 51.5408ZM26.8305 41.1439C27.6516 48.3447 35.6862 52.324 41.9142 48.7363C46.74 45.9444 48.3949 39.7669 45.6157 34.9411C42.9754 30.3806 37.1895 28.6247 32.4774 30.886C31.7952 34.8401 29.7992 38.4531 26.8305 41.1439ZM14.766 36.3307C14.526 36.3307 14.2986 36.2044 14.1596 36.0023L8.51272 27.4245L8.39903 27.0203L8.57589 26.5529L14.2102 19.5542C14.4755 19.2131 15.0566 19.2131 15.3345 19.5542L20.9941 26.5781C21.1836 26.8308 21.1962 27.1845 21.0067 27.4498L15.385 36.0023C15.2461 36.2044 15.0187 36.3307 14.766 36.3307ZM11.2793 28.9784L14.766 34.2842L18.2654 28.9784C17.6716 29.2816 15.4482 30.5196 15.0061 30.6586C14.8166 30.7217 14.6144 30.7091 14.4376 30.6207L11.2793 28.9784ZM10.2561 26.7929L14.766 29.1426L19.2886 26.7929L14.766 21.1712L10.2561 26.7929ZM36.8737 46.0202C35.9641 46.0202 36.1536 44.8959 36.1536 44.2895C35.5346 44.2895 34.3597 44.479 34.3597 43.5568C34.3597 43.1525 34.6882 42.8241 35.0924 42.8241H37.9348V40.7144H35.0924C34.6882 40.7144 34.3597 40.3859 34.3597 39.9943C34.3597 35.4212 33.9681 35.6865 36.1536 35.6865C36.1536 35.0801 35.9641 33.9558 36.8737 33.9558C37.7832 33.9558 37.6064 35.0801 37.6064 35.6865C38.2128 35.6865 39.3876 35.497 39.3876 36.4192C39.3876 36.8234 39.0718 37.1519 38.6675 37.1519H35.8251V39.2616H38.6675C39.0718 39.2616 39.3876 39.59 39.3876 39.9943C39.3876 44.5548 39.7919 44.2895 37.6064 44.2895C37.6064 44.8959 37.7832 46.0202 36.8737 46.0202ZM35.5346 18.7078C34.7513 18.7078 33.3617 18.9605 33.3617 17.9877C33.3617 17.1666 34.246 17.255 34.8145 17.255V10.4206C34.246 10.4206 33.3617 10.4964 33.3617 9.68788C33.3617 8.71515 34.7513 8.95517 35.5346 8.95517H35.8504C35.8504 8.39932 35.762 7.51502 36.5705 7.51502C37.3916 7.51502 37.3032 8.39932 37.3032 8.95517H37.619C39.9435 8.95517 41.1941 11.6334 39.8677 13.4272C42.3564 14.7663 41.4973 18.7078 38.5539 18.7078H37.3032C37.3032 19.3015 37.4548 20.3501 36.5705 20.3501C35.6988 20.3501 35.8504 19.3015 35.8504 18.7078H35.5346ZM36.2673 13.1114H37.6443C39.375 13.0861 39.3624 10.4206 37.619 10.4206H36.2673V13.1114Z" fill="#C59E52"/>
</svg>
