<svg width="30" height="30" viewBox="0 0 30 30" fill="none" xmlns="http://www.w3.org/2000/svg">
<path d="M11.5624 10.0001H2.18742C0.981211 10.0001 0 9.01887 0 7.81242V2.18742C0 0.981211 0.981211 0 2.18742 0H11.5624C12.7689 0 13.7501 0.981211 13.7501 2.18742V7.81242C13.7501 9.01887 12.7689 10.0001 11.5624 10.0001ZM2.18742 1.875C2.10458 1.87506 2.02515 1.908 1.96657 1.96657C1.908 2.02515 1.87506 2.10458 1.875 2.18742V7.81242C1.87502 7.8953 1.90793 7.97478 1.96651 8.0334C2.02509 8.09203 2.10455 8.125 2.18742 8.12508H11.5624C11.6453 8.12505 11.7248 8.0921 11.7835 8.03347C11.8421 7.97484 11.875 7.89533 11.8751 7.81242V2.18742C11.875 2.10455 11.842 2.02509 11.7834 1.96651C11.7248 1.90793 11.6453 1.87502 11.5624 1.875H2.18742ZM11.5624 30H2.18742C0.981211 30 0 29.0188 0 27.8126V14.6876C0 13.4811 0.981211 12.4999 2.18742 12.4999H11.5624C12.7689 12.4999 13.7501 13.4811 13.7501 14.6876V27.8126C13.7501 29.0188 12.7689 30 11.5624 30ZM2.18742 14.3749C2.10455 14.375 2.02509 14.408 1.96651 14.4666C1.90793 14.5252 1.87502 14.6047 1.875 14.6876V27.8126C1.87506 27.8954 1.908 27.9748 1.96657 28.0334C2.02515 28.092 2.10458 28.1249 2.18742 28.125H11.5624C11.6453 28.125 11.7248 28.0921 11.7834 28.0335C11.842 27.9749 11.875 27.8955 11.8751 27.8126V14.6876C11.875 14.6047 11.8421 14.5252 11.7835 14.4665C11.7248 14.4079 11.6453 14.375 11.5624 14.3749H2.18742ZM27.8126 30H18.4376C17.2311 30 16.2499 29.0188 16.2499 27.8126V22.1876C16.2499 20.9811 17.2311 19.9999 18.4376 19.9999H27.8126C29.0188 19.9999 30 20.9811 30 22.1876V27.8126C30 29.0188 29.0188 30 27.8126 30ZM18.4376 21.8749C18.3547 21.875 18.2752 21.9079 18.2165 21.9665C18.1579 22.0252 18.125 22.1047 18.1249 22.1876V27.8126C18.125 27.8955 18.158 27.9749 18.2166 28.0335C18.2752 28.0921 18.3547 28.125 18.4376 28.125H27.8126C27.8954 28.1249 27.9748 28.092 28.0334 28.0334C28.092 27.9748 28.1249 27.8954 28.125 27.8126V22.1876C28.125 22.1047 28.0921 22.0252 28.0335 21.9666C27.9749 21.908 27.8955 21.875 27.8126 21.8749H18.4376ZM27.8126 17.5001H18.4376C17.2311 17.5001 16.2499 16.5189 16.2499 15.3124V2.18742C16.2499 0.981211 17.2311 0 18.4376 0H27.8126C29.0188 0 30 0.981211 30 2.18742V15.3124C30 16.5189 29.0188 17.5001 27.8126 17.5001ZM18.4376 1.875C18.3547 1.87502 18.2752 1.90793 18.2166 1.96651C18.158 2.02509 18.125 2.10455 18.1249 2.18742V15.3124C18.125 15.3953 18.1579 15.4748 18.2165 15.5335C18.2752 15.5921 18.3547 15.625 18.4376 15.6251H27.8126C27.8955 15.625 27.9749 15.592 28.0335 15.5334C28.0921 15.4748 28.125 15.3953 28.125 15.3124V2.18742C28.1249 2.10458 28.092 2.02515 28.0334 1.96657C27.9748 1.908 27.8954 1.87506 27.8126 1.875H18.4376Z" fill="#505050"/>
</svg>
