<svg width="29" height="30" viewBox="0 0 29 30" fill="none" xmlns="http://www.w3.org/2000/svg">
<path d="M2 11.3108H27.0676M7.88873 4.86486V2M21.1387 4.86486V2M22.0541 4.86486H7.01351C5.68385 4.86486 4.40864 5.39307 3.46842 6.33329C2.52821 7.27351 2 8.54871 2 9.87838V23.4865C2 24.8162 2.52821 26.0914 3.46842 27.0316C4.40864 27.9718 5.68385 28.5 7.01351 28.5H22.0541C23.3837 28.5 24.6589 27.9718 25.5991 27.0316C26.5394 26.0914 27.0676 24.8162 27.0676 23.4865V9.87838C27.0676 8.54871 26.5394 7.27351 25.5991 6.33329C24.6589 5.39307 23.3837 4.86486 22.0541 4.86486Z" stroke="#BEBEBE" stroke-width="2.14865" stroke-linecap="round" stroke-linejoin="round"/>
</svg>
