<svg width="28" height="28" viewBox="0 0 28 28" fill="none" xmlns="http://www.w3.org/2000/svg">
<path d="M1 13.3501C1 8.44777 1 5.99597 2.5236 4.47367C4.0472 2.95137 6.4977 2.95007 11.4 2.95007H16.6C21.5023 2.95007 23.9541 2.95007 25.4764 4.47367C26.9987 5.99727 27 8.44777 27 13.3501V15.9501C27 20.8524 27 23.3042 25.4764 24.8265C23.9528 26.3488 21.5023 26.3501 16.6 26.3501H11.4C6.4977 26.3501 4.0459 26.3501 2.5236 24.8265C1.0013 23.3029 1 20.8524 1 15.9501V13.3501Z" stroke="#070707" stroke-width="1.5"/>
<path d="M7.4999 2.95V1M20.4999 2.95V1M1.6499 9.45H26.3499" stroke="#070707" stroke-width="1.5" stroke-linecap="round"/>
<path d="M7.5 19.0503C7.71213 19.0503 7.91541 19.1347 8.06543 19.2847C8.21546 19.4347 8.2998 19.6379 8.2998 19.8501C8.2998 20.0623 8.21546 20.2655 8.06543 20.4155C7.91541 20.5655 7.71213 20.6499 7.5 20.6499C7.2879 20.6499 7.08455 20.5655 6.93457 20.4155C6.7846 20.2655 6.7002 20.0622 6.7002 19.8501C6.7002 19.638 6.7846 19.4347 6.93457 19.2847C7.08455 19.1347 7.2879 19.0503 7.5 19.0503ZM14 19.0503C14.2121 19.0503 14.4154 19.1347 14.5654 19.2847C14.7155 19.4347 14.7998 19.6379 14.7998 19.8501C14.7998 20.0623 14.7155 20.2655 14.5654 20.4155C14.4154 20.5655 14.2121 20.6499 14 20.6499C13.7879 20.6499 13.5846 20.5655 13.4346 20.4155C13.2846 20.2655 13.2002 20.0622 13.2002 19.8501C13.2002 19.638 13.2846 19.4347 13.4346 19.2847C13.5846 19.1347 13.7879 19.0503 14 19.0503ZM20.5 19.0503C20.7121 19.0503 20.9154 19.1347 21.0654 19.2847C21.2155 19.4347 21.2998 19.6379 21.2998 19.8501C21.2998 20.0623 21.2155 20.2655 21.0654 20.4155C20.9154 20.5655 20.7121 20.6499 20.5 20.6499C20.2879 20.6499 20.0846 20.5655 19.9346 20.4155C19.7846 20.2655 19.7002 20.0622 19.7002 19.8501C19.7002 19.638 19.7846 19.4347 19.9346 19.2847C20.0846 19.1347 20.2879 19.0503 20.5 19.0503ZM7.5 13.8501C7.71208 13.8501 7.91542 13.9346 8.06543 14.0845C8.21541 14.2345 8.29975 14.4378 8.2998 14.6499C8.2998 14.8621 8.21546 15.0653 8.06543 15.2153C7.9154 15.3654 7.71217 15.4497 7.5 15.4497C7.2879 15.4497 7.08455 15.3653 6.93457 15.2153C6.78466 15.0653 6.7002 14.862 6.7002 14.6499C6.70025 14.4378 6.78459 14.2345 6.93457 14.0845C7.08455 13.9345 7.2879 13.8501 7.5 13.8501ZM14 13.8501C14.2121 13.8501 14.4154 13.9346 14.5654 14.0845C14.7154 14.2345 14.7998 14.4378 14.7998 14.6499C14.7998 14.8621 14.7155 15.0653 14.5654 15.2153C14.4154 15.3654 14.2122 15.4497 14 15.4497C13.7879 15.4497 13.5846 15.3653 13.4346 15.2153C13.2847 15.0653 13.2002 14.862 13.2002 14.6499C13.2002 14.4378 13.2846 14.2345 13.4346 14.0845C13.5846 13.9345 13.7879 13.8501 14 13.8501ZM20.5 13.8501C20.7121 13.8501 20.9154 13.9346 21.0654 14.0845C21.2154 14.2345 21.2998 14.4378 21.2998 14.6499C21.2998 14.8621 21.2155 15.0653 21.0654 15.2153C20.9154 15.3654 20.7122 15.4497 20.5 15.4497C20.2879 15.4497 20.0846 15.3653 19.9346 15.2153C19.7847 15.0653 19.7002 14.862 19.7002 14.6499C19.7002 14.4378 19.7846 14.2345 19.9346 14.0845C20.0846 13.9345 20.2879 13.8501 20.5 13.8501Z" fill="#757575" stroke="#070707"/>
</svg>
