<svg width="30" height="29" viewBox="0 0 30 29" fill="none" xmlns="http://www.w3.org/2000/svg">
<path d="M30 14.0625C30 17.681 27.0556 20.625 23.4375 20.625H18.75C18.2318 20.625 17.8125 20.2053 17.8125 19.6875C17.8125 19.1698 18.2318 18.75 18.75 18.75H23.4375C26.022 18.75 28.125 16.647 28.125 14.0625C28.125 11.4781 26.022 9.37502 23.4375 9.37502H22.5C21.9818 9.37502 21.5625 8.95525 21.5625 8.43751C21.5625 4.81899 18.6181 1.875 15 1.875C11.382 1.875 8.43751 4.81899 8.43751 8.43751C8.43751 8.95525 8.01822 9.37502 7.50001 9.37502H6.56251C3.97805 9.37502 1.875 11.4781 1.875 14.0625C1.875 16.647 3.97805 18.75 6.56251 18.75H11.25C11.7682 18.75 12.1875 19.1698 12.1875 19.6875C12.1875 20.2053 11.7682 20.625 11.25 20.625H6.56251C2.94446 20.625 0 17.681 0 14.0625C0 10.444 2.94446 7.50001 6.56251 7.50001H6.61478C7.08259 3.28711 10.6641 0 15 0C19.336 0 22.9175 3.28711 23.3853 7.50001H23.4375C27.0558 7.50001 30 10.444 30 14.0625ZM18.0872 22.7747L15.9375 24.9244V13.125C15.9375 12.6073 15.5182 12.1875 15 12.1875C14.4818 12.1875 14.0625 12.6073 14.0625 13.125V24.9244L11.9128 22.7747C11.5465 22.4084 10.9533 22.4084 10.5872 22.7747C10.2211 23.1411 10.2209 23.7343 10.5872 24.1004L14.3372 27.8504C14.5203 28.0334 14.7603 28.125 15 28.125C15.2398 28.125 15.4798 28.0334 15.6628 27.8504L19.4128 24.1004C19.7792 23.734 19.7792 23.1408 19.4128 22.7747C19.0465 22.4086 18.4533 22.4084 18.0872 22.7747Z" fill="#505050"/>
</svg>
