<svg width="23" height="16" viewBox="0 0 23 16" fill="none" xmlns="http://www.w3.org/2000/svg">
<path d="M2 15.5C1.64584 15.5 1.34917 15.38 1.11 15.14C0.870838 14.9 0.750838 14.6033 0.750004 14.25C0.749171 13.8967 0.869171 13.6 1.11 13.36C1.35084 13.12 1.6475 13 2 13H15.75C16.1042 13 16.4013 13.12 16.6413 13.36C16.8813 13.6 17.0008 13.8967 17 14.25C16.9992 14.6033 16.8792 14.9004 16.64 15.1412C16.4008 15.3821 16.1042 15.5017 15.75 15.5H2ZM20.625 13.375L16.125 8.875C15.875 8.625 15.75 8.33333 15.75 8C15.75 7.66667 15.875 7.375 16.125 7.125L20.625 2.625C20.8542 2.39583 21.1458 2.28125 21.5 2.28125C21.8542 2.28125 22.1458 2.39583 22.375 2.625C22.6042 2.85417 22.7188 3.14583 22.7188 3.5C22.7188 3.85417 22.6042 4.14583 22.375 4.375L18.75 8L22.375 11.625C22.6042 11.8542 22.7188 12.1458 22.7188 12.5C22.7188 12.8542 22.6042 13.1458 22.375 13.375C22.1458 13.6042 21.8542 13.7188 21.5 13.7188C21.1458 13.7188 20.8542 13.6042 20.625 13.375ZM2 9.25C1.64584 9.25 1.34917 9.13 1.11 8.89C0.870838 8.65 0.750838 8.35333 0.750004 8C0.749171 7.64667 0.869171 7.35 1.11 7.11C1.35084 6.87 1.6475 6.75 2 6.75H12C12.3542 6.75 12.6513 6.87 12.8913 7.11C13.1313 7.35 13.2508 7.64667 13.25 8C13.2492 8.35333 13.1292 8.65042 12.89 8.89125C12.6508 9.13208 12.3542 9.25167 12 9.25H2ZM2 3C1.64584 3 1.34917 2.88 1.11 2.64C0.870838 2.4 0.750838 2.10333 0.750004 1.75C0.749171 1.39667 0.869171 1.1 1.11 0.86C1.35084 0.62 1.6475 0.5 2 0.5H15.75C16.1042 0.5 16.4013 0.62 16.6413 0.86C16.8813 1.1 17.0008 1.39667 17 1.75C16.9992 2.10333 16.8792 2.40042 16.64 2.64125C16.4008 2.88208 16.1042 3.00167 15.75 3H2Z" fill="black"/>
</svg>
