<svg width="32" height="25" viewBox="0 0 32 25" fill="none" xmlns="http://www.w3.org/2000/svg">
<path d="M1.69394 4.92515H17.2222C17.6505 6.65576 19.216 7.94284 21.0771 7.94284C22.9382 7.94284 24.5037 6.65576 24.932 4.92515H30.305C30.8317 4.92515 31.2587 4.49813 31.2587 3.97145C31.2587 3.44477 30.8317 3.01775 30.305 3.01775H24.9319C24.5037 1.28714 22.9382 0 21.077 0C19.2159 0 17.6504 1.28714 17.2221 3.01775H1.69394C1.16725 3.01775 0.740234 3.44477 0.740234 3.97145C0.740234 4.49813 1.16725 4.92515 1.69394 4.92515ZM21.0771 1.9074C22.2152 1.9074 23.1411 2.83333 23.1411 3.97139C23.1411 5.10951 22.2152 6.03544 21.0771 6.03544C19.939 6.03544 19.013 5.10951 19.013 3.97139C19.013 2.83333 19.939 1.9074 21.0771 1.9074ZM1.69394 13.174H7.06697C7.4953 14.9046 9.06074 16.1916 10.9219 16.1916C12.783 16.1916 14.3485 14.9046 14.7768 13.174H30.305C30.8317 13.174 31.2587 12.7469 31.2587 12.2202C31.2587 11.6936 30.8317 11.2665 30.305 11.2665H14.7767C14.3484 9.53594 12.783 8.2488 10.9218 8.2488C9.06068 8.2488 7.49524 9.53594 7.06691 11.2665H1.69394C1.16725 11.2665 0.740234 11.6936 0.740234 12.2202C0.740234 12.7469 1.16719 13.174 1.69394 13.174ZM10.9218 10.1562C12.06 10.1562 12.9859 11.0821 12.9859 12.2202C12.9859 13.3583 12.06 14.2842 10.9218 14.2842C9.7837 14.2842 8.85778 13.3583 8.85778 12.2202C8.85778 11.0821 9.7837 10.1562 10.9218 10.1562ZM30.305 19.5153H24.9319C24.5036 17.7847 22.9382 16.4976 21.077 16.4976C19.2159 16.4976 17.6504 17.7847 17.2221 19.5153H1.69394C1.16725 19.5153 0.740234 19.9424 0.740234 20.469C0.740234 20.9957 1.16725 21.4228 1.69394 21.4228H17.2222C17.6505 23.1534 19.2159 24.4405 21.0771 24.4405C22.9382 24.4405 24.5037 23.1534 24.932 21.4228H30.305C30.8317 21.4228 31.2587 20.9957 31.2587 20.469C31.2587 19.9424 30.8317 19.5153 30.305 19.5153ZM21.0771 22.5331C19.939 22.5331 19.013 21.6072 19.013 20.469C19.013 19.3309 19.939 18.405 21.0771 18.405C22.2152 18.405 23.1411 19.3309 23.1411 20.469C23.1411 21.6072 22.2152 22.5331 21.0771 22.5331Z" fill="black"/>
</svg>
