<svg width="30" height="27"
 viewBox="0 0 30 27" 
 fill="none" xmlns="http://www.w3.org/2000/svg">
<path d="M2.99875 2.99875V23.99H26.9888V2.99875H2.99875ZM1.49938 0H28.4882C28.8858 0 29.2672 0.15797 29.5484 0.439157C29.8296 0.720345 29.9875 1.10172 29.9875 1.49938V25.4894C29.9875 25.8871 29.8296 26.2684 29.5484 26.5496C29.2672 26.8308 28.8858 26.9888 28.4882 26.9888H1.49938C1.10172 26.9888 0.720345 26.8308 0.439157 26.5496C0.15797 26.2684 0 25.8871 0 25.4894V1.49938C0 1.10172 0.15797 0.720345 0.439157 0.439157C0.720345 0.15797 1.10172 0 1.49938 0ZM19.1815 10.1853L16.4932 7.49689H23.99V14.9938L21.3017 12.3054L15.5081 18.099L12.3279 14.9188L8.08614 19.159L5.96602 17.0389L12.3279 10.6771L15.5081 13.8572L19.1815 10.1853Z"
 fill="#505050"/>
</svg>
