<svg width="36" height="36" viewBox="0 0 36 36" fill="none" xmlns="http://www.w3.org/2000/svg">
<path d="M33.5652 18.1482V13.2059C33.5652 11.5301 32.2653 10.1672 30.6229 10.035L26.0332 2.01836C25.6078 1.27693 24.921 0.747005 24.0992 0.526959C23.2813 0.308411 22.426 0.423192 21.6939 0.849274L5.96005 10.0092H3.1967C1.43371 10.0092 0 11.4429 0 13.2059V32.386C0 34.149 1.43363 35.5827 3.1967 35.5827H30.3685C32.1315 35.5827 33.5652 34.1491 33.5652 32.386V27.4438C34.4934 27.1128 35.1635 26.234 35.1635 25.1935V20.3985C35.1635 19.358 34.4934 18.4792 33.5652 18.1482ZM28.7657 10.0092H21.8001L27.0243 6.96771L28.7657 10.0092ZM26.2302 5.58068L18.6235 10.0092H15.4683L25.4413 4.20279L26.2302 5.58068ZM22.4985 2.23061C22.8599 2.01911 23.282 1.96292 23.6856 2.07065C24.0937 2.17989 24.434 2.44369 24.6455 2.81283L24.6472 2.81575L12.2918 10.0092H9.13675L22.4985 2.23061ZM31.9668 32.386C31.9668 33.2671 31.2496 33.9843 30.3685 33.9843H3.1967C2.31562 33.9843 1.59839 33.2671 1.59839 32.386V13.2059C1.59839 12.3249 2.31562 11.6076 3.1967 11.6076H30.3685C31.2496 11.6076 31.9668 12.3249 31.9668 13.2059V18.001H27.1718C24.5276 18.001 22.3768 20.1518 22.3768 22.796C22.3768 25.4401 24.5276 27.591 27.1718 27.591H31.9668V32.386ZM33.5652 25.1935C33.5652 25.6344 33.207 25.9927 32.766 25.9927H27.1718C25.4088 25.9927 23.9751 24.559 23.9751 22.796C23.9751 21.033 25.4087 19.5993 27.1718 19.5993H32.766C33.2069 19.5993 33.5652 19.9575 33.5652 20.3985V25.1935Z" fill="black"/>
<path d="M27.172 21.1976C26.291 21.1976 25.5737 21.9149 25.5737 22.7959C25.5737 23.677 26.291 24.3943 27.172 24.3943C28.0531 24.3943 28.7704 23.677 28.7704 22.7959C28.7704 21.9149 28.0532 21.1976 27.172 21.1976Z" fill="black"/>
</svg>
