<svg width="31" height="28" viewBox="0 0 31 28" fill="none" xmlns="http://www.w3.org/2000/svg">
<path d="M16.5091 0C9.24594 0 3.34068 5.71579 2.96173 12.8842H0.97226C0.309103 12.8842 -0.101424 13.6105 0.245945 14.1789L3.81437 20.0526C4.13016 20.5895 4.91963 20.5895 5.267 20.0526L8.83542 14.1789C9.18279 13.6105 8.77226 12.8842 8.1091 12.8842H5.867C6.24594 7.32631 10.8249 2.90526 16.5091 2.90526C22.4144 2.90526 27.2144 7.70526 27.2144 13.6105C27.2144 19.5158 22.4144 24.3158 16.5091 24.3158C14.3933 24.3158 12.3723 23.7158 10.6354 22.5474C9.97226 22.1053 9.05647 22.2947 8.61437 22.9579C8.17226 23.621 8.36173 24.5368 9.02489 24.9789C11.2354 26.4632 13.8249 27.221 16.5091 27.221C24.0249 27.221 30.1196 21.1263 30.1196 13.6105C30.1196 6.09474 24.0249 0 16.5091 0Z" fill="#848484"/>
<path d="M15.941 14.8421L19.9199 16.7685C20.141 16.8632 20.3304 16.9263 20.5515 16.9263C21.0883 16.9263 21.6252 16.6106 21.8778 16.1053C22.2252 15.379 21.941 14.4948 21.2146 14.1474L18.0567 12.6L17.962 7.35793C17.962 6.56845 17.2989 5.9053 16.4778 5.93687C15.6883 5.93687 15.0252 6.60003 15.0567 7.42108L15.1515 13.579C15.1515 14.0842 15.4673 14.5895 15.941 14.8421Z" fill="#848484"/>
</svg>
