<svg width="38" height="36" viewBox="0 0 38 36" fill="none" xmlns="http://www.w3.org/2000/svg">
<path d="M13.1323 23.2195C13.9585 22.4106 14.4727 21.2839 14.4727 20.0391C14.4727 17.5836 12.475 15.5859 10.0195 15.5859C7.56408 15.5859 5.56641 17.5836 5.56641 20.0391C5.56641 21.2839 6.08052 22.4106 6.9068 23.2195C5.42739 24.221 4.45312 25.9149 4.45312 27.832V30.0586C4.45312 30.6734 4.95158 31.1719 5.56641 31.1719H14.4727C15.0875 31.1719 15.5859 30.6734 15.5859 30.0586V27.832C15.5859 25.9149 14.6117 24.221 13.1323 23.2195ZM10.0195 17.8125C11.2473 17.8125 12.2461 18.8113 12.2461 20.0391C12.2461 21.2668 11.2473 22.2656 10.0195 22.2656C8.7918 22.2656 7.79297 21.2668 7.79297 20.0391C7.79297 18.8113 8.7918 17.8125 10.0195 17.8125ZM13.3594 28.9453H6.67969V27.832C6.67969 25.9904 8.17794 24.4922 10.0195 24.4922C11.8611 24.4922 13.3594 25.9904 13.3594 27.832V28.9453Z" fill="#C59E52"/>
<path d="M25.7539 22.2656C26.3688 22.2656 26.8672 21.7672 26.8672 21.1523C26.8672 20.5375 26.3688 20.0391 25.7539 20.0391C25.1391 20.0391 24.6406 20.5375 24.6406 21.1523C24.6406 21.7672 25.1391 22.2656 25.7539 22.2656Z" fill="#C59E52"/>
<path d="M30.207 22.2656C30.8219 22.2656 31.3203 21.7672 31.3203 21.1523C31.3203 20.5375 30.8219 20.0391 30.207 20.0391C29.5922 20.0391 29.0938 20.5375 29.0938 21.1523C29.0938 21.7672 29.5922 22.2656 30.207 22.2656Z" fill="#C59E52"/>
<path d="M21.3008 22.2656C21.9156 22.2656 22.4141 21.7672 22.4141 21.1523C22.4141 20.5375 21.9156 20.0391 21.3008 20.0391C20.6859 20.0391 20.1875 20.5375 20.1875 21.1523C20.1875 21.7672 20.6859 22.2656 21.3008 22.2656Z" fill="#C59E52"/>
<path d="M30.207 24.4922H21.3008C20.686 24.4922 20.1875 24.9907 20.1875 25.6055C20.1875 26.2203 20.686 26.7188 21.3008 26.7188H30.207C30.8219 26.7188 31.3203 26.2203 31.3203 25.6055C31.3203 24.9907 30.8219 24.4922 30.207 24.4922ZM30.207 28.9453H21.3008C20.686 28.9453 20.1875 29.4438 20.1875 30.0586C20.1875 30.6734 20.686 31.1719 21.3008 31.1719H30.207C30.8219 31.1719 31.3203 30.6734 31.3203 30.0586C31.3203 29.4438 30.8219 28.9453 30.207 28.9453ZM33.2208 5.89254C32.7861 5.45769 32.0811 5.45769 31.6464 5.89246L27.9805 9.55842L26.5411 8.11902C26.1064 7.68425 25.4014 7.68425 24.9667 8.11902C24.5319 8.5538 24.5319 9.25865 24.9667 9.69343L27.1932 11.92C27.4106 12.1375 27.6955 12.2461 27.9805 12.2461C28.2654 12.2461 28.5503 12.1374 28.7676 11.9201L33.2208 7.46694C33.6555 7.03217 33.6555 6.32731 33.2208 5.89254Z" fill="#C59E52"/>
<path d="M29.0938 0C24.1828 0 20.1875 3.99534 20.1875 8.90625H3.33984C1.49825 8.90625 0 10.4045 0 12.2461V32.2852C0 34.1267 1.49825 35.625 3.33984 35.625H32.4336C34.2752 35.625 35.7734 34.1267 35.7734 32.2852V14.7902C37.1584 13.2199 38 11.1597 38 8.90625C38 3.99534 34.0047 0 29.0938 0ZM33.5469 32.2852C33.5469 32.899 33.0475 33.3984 32.4336 33.3984H3.33984C2.72598 33.3984 2.22656 32.899 2.22656 32.2852V12.2461C2.22656 11.6322 2.72598 11.1328 3.33984 11.1328H20.4693C21.4605 14.9698 24.9514 17.8125 29.0938 17.8125C30.7149 17.8125 32.2361 17.3769 33.5469 16.6169V32.2852ZM29.0938 15.5859C25.4106 15.5859 22.4141 12.5894 22.4141 8.90625C22.4141 5.22307 25.4106 2.22656 29.0938 2.22656C32.7769 2.22656 35.7734 5.22307 35.7734 8.90625C35.7734 12.5894 32.7769 15.5859 29.0938 15.5859Z" fill="#C59E52"/>
</svg>
