<svg width="31" height="28" viewBox="0 0 31 28" fill="none" xmlns="http://www.w3.org/2000/svg">
<path d="M3.47998 21.4604V21.7504C3.47998 22.2887 3.69385 22.8051 4.07453 23.1857C4.45522 23.5664 4.97153 23.7803 5.5099 23.7803H13.0496C13.588 23.7803 14.1043 23.5664 14.485 23.1857C14.8656 22.8051 15.0795 22.2887 15.0795 21.7504V21.4604C15.1028 20.4596 14.7931 19.4794 14.1989 18.6737C13.6047 17.868 12.7598 17.2825 11.7968 17.0091C12.3649 16.4996 12.7649 15.8297 12.9442 15.088C13.1234 14.3463 13.0733 13.5677 12.8005 12.8551C12.5277 12.1424 12.0452 11.5293 11.4165 11.0969C10.7879 10.6644 10.0428 10.4328 9.27975 10.4328C8.5167 10.4328 7.77162 10.6644 7.14298 11.0969C6.51435 11.5293 6.03175 12.1424 5.75899 12.8551C5.48623 13.5677 5.43614 14.3463 5.61534 15.088C5.79455 15.8297 6.19461 16.4996 6.76265 17.0091C5.79966 17.2825 4.95475 17.868 4.36059 18.6737C3.76644 19.4794 3.45669 20.4596 3.47998 21.4604ZM9.27975 11.6008C9.79594 11.6008 10.3005 11.7538 10.7297 12.0406C11.1589 12.3274 11.4934 12.735 11.691 13.2119C11.8885 13.6888 11.9402 14.2136 11.8395 14.7198C11.7388 15.2261 11.4902 15.6911 11.1252 16.0561C10.7602 16.4212 10.2952 16.6697 9.78891 16.7704C9.28264 16.8711 8.75788 16.8194 8.28099 16.6219C7.80409 16.4244 7.39648 16.0899 7.1097 15.6607C6.82292 15.2315 6.66985 14.7269 6.66985 14.2107C6.66985 13.5185 6.94482 12.8547 7.43427 12.3652C7.92372 11.8758 8.58756 11.6008 9.27975 11.6008ZM8.1198 17.9805H10.4397C10.8995 17.9702 11.3566 18.0532 11.7835 18.2244C12.2103 18.3957 12.5981 18.6516 12.9233 18.9768C13.2485 19.302 13.5044 19.6898 13.6757 20.1166C13.8469 20.5435 13.9299 21.0006 13.9196 21.4604V21.7504C13.9196 21.9811 13.8279 22.2024 13.6648 22.3655C13.5016 22.5287 13.2803 22.6203 13.0496 22.6203H5.5099C5.27917 22.6203 5.05789 22.5287 4.89474 22.3655C4.73159 22.2024 4.63994 21.9811 4.63994 21.7504V21.4604C4.62964 21.0006 4.71261 20.5435 4.88384 20.1166C5.05507 19.6898 5.31102 19.302 5.63623 18.9768C5.96144 18.6516 6.34917 18.3957 6.77602 18.2244C7.20287 18.0532 7.65999 17.9702 8.1198 17.9805Z" fill="#505050"/>
<path d="M27.2589 17.4005C27.1051 17.4005 26.9576 17.4616 26.8488 17.5704C26.74 17.6792 26.6789 17.8267 26.6789 17.9805V25.2302C26.6789 25.4609 26.5873 25.6822 26.4241 25.8454C26.261 26.0085 26.0397 26.1002 25.809 26.1002H2.02992C1.79919 26.1002 1.57791 26.0085 1.41476 25.8454C1.25161 25.6822 1.15995 25.4609 1.15995 25.2302V8.4109C1.15995 8.18017 1.25161 7.95889 1.41476 7.79574C1.57791 7.63259 1.79919 7.54093 2.02992 7.54093H14.7894C14.9432 7.54093 15.0907 7.47983 15.1995 7.37106C15.3083 7.2623 15.3694 7.11478 15.3694 6.96096C15.3694 6.80714 15.3083 6.65962 15.1995 6.55085C15.0907 6.44209 14.9432 6.38098 14.7894 6.38098H2.02992C1.49155 6.38098 0.975233 6.59485 0.594549 6.97553C0.213866 7.35621 0 7.87253 0 8.4109V25.2302C0 25.7686 0.213866 26.2849 0.594549 26.6656C0.975233 27.0463 1.49155 27.2601 2.02992 27.2601H25.809C26.3473 27.2601 26.8636 27.0463 27.2443 26.6656C27.625 26.2849 27.8389 25.7686 27.8389 25.2302V17.9805C27.8389 17.8267 27.7778 17.6792 27.669 17.5704C27.5602 17.4616 27.4127 17.4005 27.2589 17.4005ZM26.7514 6.55207L23.1034 10.2001L20.8067 7.90342C20.6978 7.79459 20.5502 7.73345 20.3963 7.73345C20.2424 7.73345 20.0948 7.79459 19.986 7.90342C19.8772 8.01225 19.816 8.15985 19.816 8.31375C19.816 8.46766 19.8772 8.61526 19.986 8.72409L22.6916 11.4297C22.7455 11.484 22.8097 11.527 22.8804 11.5564C22.951 11.5857 23.0268 11.6008 23.1034 11.6008C23.2569 11.6001 23.404 11.5386 23.5122 11.4297L27.5721 7.36984C27.6719 7.25934 27.7253 7.1147 27.7214 6.96587C27.7175 6.81704 27.6565 6.67542 27.551 6.57033C27.4455 6.46524 27.3037 6.40474 27.1549 6.40134C27.006 6.39794 26.8616 6.45191 26.7514 6.55207Z" fill="#505050"/>
<path d="M30.82 3.32743C30.8056 3.19349 30.7451 3.06871 30.6488 2.97453C30.5525 2.88034 30.4264 2.82261 30.2922 2.81125C29.1859 2.66816 28.1059 2.36739 27.0849 1.91809C26.0303 1.47896 25.0479 0.883613 24.1705 0.15206C24.0636 0.0542465 23.924 0 23.779 0C23.6341 0 23.4945 0.0542465 23.3876 0.15206C22.5104 0.883937 21.5279 1.47931 20.4732 1.91809C19.4576 2.3655 18.3836 2.66623 17.2833 2.81125C17.1486 2.82197 17.0218 2.87941 16.9249 2.97366C16.828 3.0679 16.7671 3.19303 16.7526 3.32743C16.7265 3.57392 16.1466 9.36499 17.5791 12.2243C19.2929 15.6403 23.3789 17.5572 23.55 17.6383C23.6263 17.6737 23.7094 17.692 23.7935 17.692C23.8777 17.692 23.9608 17.6737 24.0371 17.6383C24.2082 17.5572 28.2942 15.6403 30.008 12.2243C31.426 9.36499 30.8461 3.57392 30.82 3.32743ZM28.9553 11.7052C27.6533 14.3064 24.649 16.0086 23.779 16.4639C22.9091 16.0086 19.9048 14.3064 18.6028 11.7052C17.5356 9.57088 17.7502 5.29935 17.8546 3.90161C18.9115 3.71745 19.9432 3.40989 20.9285 2.98524C21.9441 2.55574 22.9018 2.00042 23.779 1.33231C24.6563 2.00042 25.614 2.55574 26.6296 2.98524C27.6149 3.40989 28.6466 3.71745 29.7035 3.90161C29.8108 5.29935 30.0254 9.57088 28.9553 11.7052ZM17.9793 23.7803H23.779C23.9329 23.7803 24.0804 23.7192 24.1891 23.6104C24.2979 23.5017 24.359 23.3541 24.359 23.2003C24.359 23.0465 24.2979 22.899 24.1891 22.7902C24.0804 22.6814 23.9329 22.6203 23.779 22.6203H17.9793C17.8255 22.6203 17.6779 22.6814 17.5692 22.7902C17.4604 22.899 17.3993 23.0465 17.3993 23.2003C17.3993 23.3541 17.4604 23.5017 17.5692 23.6104C17.6779 23.7192 17.8255 23.7803 17.9793 23.7803ZM17.9793 20.3004H21.4591C21.613 20.3004 21.7605 20.2393 21.8692 20.1306C21.978 20.0218 22.0391 19.8743 22.0391 19.7205C22.0391 19.5666 21.978 19.4191 21.8692 19.3104C21.7605 19.2016 21.613 19.1405 21.4591 19.1405H17.9793C17.8255 19.1405 17.6779 19.2016 17.5692 19.3104C17.4604 19.4191 17.3993 19.5666 17.3993 19.7205C17.3993 19.8743 17.4604 20.0218 17.5692 20.1306C17.6779 20.2393 17.8255 20.3004 17.9793 20.3004Z" fill="#505050"/>
</svg>
