<svg width="30" height="30" viewBox="0 0 30 30" fill="none" xmlns="http://www.w3.org/2000/svg">
<path d="M14.9502 27.4087H3.73752C3.0498 27.4087 2.4917 26.8505 2.4917 26.1629V3.73758C2.4917 3.04986 3.04986 2.49176 3.73752 2.49176H14.9502C15.6391 2.49176 16.196 1.93488 16.196 1.24594C16.196 0.556992 15.6391 0 14.9502 0H3.73752C1.67689 0 0 1.67695 0 3.73758V26.1628C0 28.2234 1.67689 29.9003 3.73752 29.9003H14.9502C15.6391 29.9003 16.196 29.3435 16.196 28.6545C16.196 27.9656 15.6391 27.4087 14.9502 27.4087Z" fill="#505050"/>
<path d="M29.6287 14.0631L22.054 6.58804C21.5656 6.10464 20.7758 6.11091 20.2924 6.60052C19.809 7.09013 19.8139 7.87874 20.3048 8.36214L25.718 13.7043H11.2126C10.5237 13.7043 9.9668 14.2612 9.9668 14.9501C9.9668 15.6391 10.5237 16.196 11.2126 16.196H25.718L20.3048 21.5382C19.814 22.0216 19.8103 22.8102 20.2924 23.2998C20.4082 23.4174 20.5463 23.5108 20.6986 23.5745C20.8509 23.6382 21.0143 23.671 21.1794 23.671C21.4959 23.671 21.8123 23.5515 22.054 23.3122L29.6287 15.8371C29.7462 15.7212 29.8395 15.583 29.9032 15.4308C29.9669 15.2785 29.9998 15.1151 30 14.9501C30 14.6163 29.8667 14.2986 29.6287 14.0631Z" fill="#505050"/>
</svg>
