<svg width="32" height="26" viewBox="0 0 32 26" fill="none" xmlns="http://www.w3.org/2000/svg">
<path d="M31.431 2.73305C31.0164 2.24294 30.4358 1.94357 29.796 1.89013L7.26146 0.00853009C6.6216 -0.0449067 5.99948 0.154028 5.5093 0.568585C5.02112 0.981517 4.72219 1.5592 4.66706 2.19587L4.21369 6.44932H2.4034C1.07817 6.44932 0 7.52749 0 8.85272V22.9589C0 24.2841 1.07817 25.3623 2.4034 25.3623H25.0164C26.3417 25.3623 27.4199 24.2841 27.4199 22.9589V20.6706L28.2223 20.7376C28.29 20.7432 28.3573 20.7461 28.424 20.7461C29.6595 20.7461 30.7128 19.7955 30.8174 18.5425L31.9912 4.48528C32.0446 3.84548 31.8456 3.22324 31.431 2.73305ZM2.4034 7.6993H25.0164C25.6524 7.6993 26.1699 8.21673 26.1699 8.85272V10.1381H1.24998V8.85272C1.24998 8.21673 1.76741 7.6993 2.4034 7.6993ZM1.24998 11.3881H26.1699V13.9811H1.24998V11.3881ZM25.0164 24.1123H2.4034C1.76741 24.1123 1.24998 23.5949 1.24998 22.9589V15.2311H26.1699V22.9589C26.1699 23.5949 25.6524 24.1123 25.0164 24.1123ZM30.7455 4.38122L29.5717 18.4385C29.5188 19.0723 28.96 19.5451 28.3263 19.4919L27.4199 19.4163V8.85272C27.4199 7.52749 26.3417 6.44932 25.0164 6.44932H5.4708L5.91073 2.32187C5.91123 2.31712 5.91167 2.31244 5.91204 2.30762C5.96498 1.67382 6.52347 1.20108 7.15746 1.2542L29.692 3.1358C29.9991 3.16142 30.2778 3.30511 30.4767 3.54036C30.6756 3.7756 30.7711 4.07416 30.7455 4.38122Z" fill="#C59E52"/>
<path d="M23.5541 17.0893H17.5391C17.1939 17.0893 16.9141 17.3691 16.9141 17.7143V21.6386C16.9141 21.9837 17.1939 22.2636 17.5391 22.2636H23.5541C23.8993 22.2636 24.1791 21.9837 24.1791 21.6386V17.7143C24.1791 17.3691 23.8993 17.0893 23.5541 17.0893ZM22.9291 21.0136H18.1641V18.3393H22.9291V21.0136Z" fill="#C59E52"/>
</svg>
