<svg width="31" height="35" viewBox="0 0 31 35" fill="none" xmlns="http://www.w3.org/2000/svg">
<path d="M25.5726 17.5254V14.3344C25.5726 9.67922 22.4783 5.73367 18.2387 4.44498V3.00021C18.2387 1.3459 16.8928 0 15.2385 0C13.5842 0 12.2383 1.3459 12.2383 3.00021V4.44498C7.99864 5.73367 4.90442 9.67916 4.90442 14.3344V17.5254C4.90442 21.6145 3.34578 25.4918 0.515645 28.4432C0.379946 28.5847 0.288817 28.7629 0.253587 28.9558C0.218357 29.1486 0.24058 29.3475 0.317493 29.5278C0.394405 29.7081 0.522616 29.8619 0.686185 29.9699C0.849755 30.0779 1.04147 30.1355 1.2375 30.1355H10.3387C10.8033 32.4151 12.8237 34.1358 15.2385 34.1358C17.6533 34.1358 19.6736 32.4151 20.1382 30.1355H29.2395C29.4355 30.1355 29.6272 30.0779 29.7907 29.9698C29.9543 29.8618 30.0825 29.7081 30.1594 29.5278C30.2363 29.3475 30.2585 29.1486 30.2233 28.9557C30.1881 28.7629 30.097 28.5847 29.9613 28.4432C27.1312 25.4918 25.5726 21.6144 25.5726 17.5254ZM14.2384 3.00021C14.2384 2.44877 14.6871 2.00014 15.2385 2.00014C15.7899 2.00014 16.2386 2.44877 16.2386 3.00021V4.04882C15.9094 4.01709 15.5759 4.00028 15.2385 4.00028C14.9011 4.00028 14.5676 4.01709 14.2384 4.04882V3.00021ZM15.2385 32.1356C13.9347 32.1356 12.8231 31.2995 12.4103 30.1355H18.0667C17.6539 31.2995 16.5423 32.1356 15.2385 32.1356ZM3.39298 28.1353C5.67055 25.0823 6.90457 21.3877 6.90457 17.5254V14.3344C6.90457 9.73903 10.6432 6.00043 15.2385 6.00043C19.8338 6.00043 23.5724 9.73903 23.5724 14.3344V17.5254C23.5724 21.3877 24.8064 25.0823 27.0841 28.1353H3.39298ZM28.2394 14.3344C28.2394 14.8867 28.6872 15.3344 29.2395 15.3344C29.7918 15.3344 30.2396 14.8867 30.2396 14.3344C30.2396 10.3274 28.6792 6.56027 25.8458 3.72693C25.4554 3.33644 24.8221 3.33637 24.4315 3.72693C24.041 4.11749 24.041 4.75067 24.4315 5.14123C26.8871 7.59681 28.2394 10.8616 28.2394 14.3344ZM1.2375 15.3344C1.7898 15.3344 2.23757 14.8867 2.23757 14.3344C2.23757 10.8617 3.58993 7.59687 6.04544 5.1413C6.436 4.75074 6.436 4.11756 6.04544 3.727C5.65494 3.33644 5.0217 3.33644 4.63114 3.727C1.7978 6.56033 0.237425 10.3274 0.237425 14.3344C0.237425 14.8867 0.68519 15.3344 1.2375 15.3344Z" fill="black"/>
</svg>
