<svg width="30" height="30" viewBox="0 0 30 30" fill="none" xmlns="http://www.w3.org/2000/svg">
<path d="M15 0C13.3431 0 12 1.34312 12 3C12 4.65688 13.3431 6 15 6C16.6562 5.99837 17.9984 4.65619 18 3C18 1.34312 16.6569 0 15 0ZM15 5C13.8954 5 13 4.10456 13 3C13 1.89544 13.8954 1 15 1C16.1046 1 17 1.89544 17 3C17 4.10456 16.1046 5 15 5ZM17 6.5H16.882L16.7765 6.5525C16.2246 6.82728 15.6165 6.97029 15 6.97029C14.3835 6.97029 13.7754 6.82728 13.2235 6.5525L13.118 6.5H13C11.62 6.50163 10.5016 7.62 10.5 9V12C10.5 12.8284 11.1716 13.5 12 13.5H18C18.8284 13.5 19.5 12.8284 19.5 12V9C19.4984 7.62 18.38 6.50163 17 6.5ZM18.5 12C18.5 12.1326 18.4473 12.2598 18.3536 12.3536C18.2598 12.4473 18.1326 12.5 18 12.5H12C11.8674 12.5 11.7402 12.4473 11.6464 12.3536C11.5527 12.2598 11.5 12.1326 11.5 12V9C11.5001 8.213 12.1084 7.55988 12.8935 7.504C13.5535 7.81031 14.2724 7.969 15 7.969C15.7276 7.969 16.4465 7.81031 17.1065 7.504C17.8915 7.55988 18.4999 8.213 18.5 9V12ZM25.5 16.5C23.8431 16.5 22.5 17.8431 22.5 19.5C22.5 21.1569 23.8431 22.5 25.5 22.5C27.1569 22.5 28.5 21.1569 28.5 19.5C28.4984 17.8438 27.1562 16.5016 25.5 16.5ZM25.5 21.5C24.3954 21.5 23.5 20.6046 23.5 19.5C23.5 18.3954 24.3954 17.5 25.5 17.5C26.6046 17.5 27.5 18.3954 27.5 19.5C27.5 20.6046 26.6046 21.5 25.5 21.5ZM27.5 23H27.382L27.2765 23.05C26.7246 23.3247 26.1165 23.4677 25.5 23.4677C24.8835 23.4677 24.2754 23.3247 23.7235 23.05L23.618 23H23.5C22.12 23.0016 21.0016 24.12 21 25.5V28.5C21 29.3284 21.6716 30 22.5 30H28.5C29.3284 30 30 29.3284 30 28.5V25.5C29.9984 24.12 28.88 23.0016 27.5 23ZM29 28.5C29 28.6326 28.9473 28.7598 28.8536 28.8536C28.7598 28.9473 28.6326 29 28.5 29H22.5C22.3674 29 22.2402 28.9473 22.1464 28.8536C22.0527 28.7598 22 28.6326 22 28.5V25.5C22.0001 24.713 22.6084 24.0599 23.3935 24.004C24.0535 24.3103 24.7724 24.469 25.5 24.469C26.2276 24.469 26.9465 24.3103 27.6065 24.004C28.3916 24.0599 28.9999 24.713 29 25.5V28.5ZM4.5 16.5C2.84312 16.5 1.5 17.8431 1.5 19.5C1.5 21.1569 2.84312 22.5 4.5 22.5C6.15688 22.5 7.5 21.1569 7.5 19.5C7.49837 17.8438 6.15619 16.5016 4.5 16.5ZM4.5 21.5C3.39544 21.5 2.5 20.6046 2.5 19.5C2.5 18.3954 3.39544 17.5 4.5 17.5C5.60456 17.5 6.5 18.3954 6.5 19.5C6.5 20.6046 5.60456 21.5 4.5 21.5ZM6.5 23H6.382L6.2765 23.05C5.7246 23.3247 5.1165 23.4677 4.5 23.4677C3.8835 23.4677 3.2754 23.3247 2.7235 23.05L2.618 23H2.5C1.12 23.0016 0.001625 24.12 0 25.5V28.5C0 29.3284 0.671562 30 1.5 30H7.5C8.32844 30 9 29.3284 9 28.5V25.5C8.99837 24.12 7.88 23.0016 6.5 23ZM8 28.5C8 28.6326 7.94732 28.7598 7.85355 28.8536C7.75979 28.9473 7.63261 29 7.5 29H1.5C1.36739 29 1.24021 28.9473 1.14645 28.8536C1.05268 28.7598 1 28.6326 1 28.5V25.5C1.00013 24.713 1.60844 24.0599 2.3935 24.004C3.05351 24.3103 3.77238 24.469 4.5 24.469C5.22762 24.469 5.94649 24.3103 6.6065 24.004C7.39156 24.0599 7.99988 24.713 8 25.5V28.5ZM19.9608 25.3923L19.96 25.3905C19.908 25.2685 19.8097 25.1722 19.6867 25.1227C19.5637 25.0732 19.4261 25.0745 19.3041 25.1265C17.0462 26.0727 14.5388 26.2454 12.1726 25.6175L12.6406 25.48C12.9057 25.4024 13.0577 25.1246 12.9801 24.8595C12.9024 24.5944 12.6247 24.4424 12.3596 24.52L10.3596 25.1065C10.3521 25.1065 10.3466 25.115 10.3396 25.1175C10.2932 25.1348 10.2498 25.1589 10.2106 25.189C10.1932 25.1984 10.1765 25.2089 10.1606 25.2205C10.1078 25.2676 10.066 25.3256 10.0381 25.3905C10.0109 25.4559 9.99799 25.5263 10.0001 25.597C10.0123 25.6647 10.0289 25.7315 10.0501 25.797C10.0531 25.804 10.0501 25.812 10.0556 25.819L11.0556 27.7325C11.086 27.7907 11.1275 27.8424 11.1779 27.8846C11.2283 27.9268 11.2865 27.9586 11.3492 27.9783C11.4118 27.998 11.4778 28.0051 11.5432 27.9993C11.6087 27.9935 11.6723 27.9749 11.7306 27.9445C11.7888 27.9141 11.8405 27.8725 11.8827 27.8221C11.9248 27.7718 11.9567 27.7136 11.9764 27.6509C11.996 27.5882 12.0032 27.5223 11.9974 27.4568C11.9916 27.3914 11.973 27.3277 11.9426 27.2695L11.5356 26.4915C14.2239 27.2996 17.1102 27.1426 19.6951 26.0475C19.8172 25.9958 19.9138 25.8978 19.9636 25.7749C20.0134 25.652 20.0124 25.5144 19.9608 25.3923ZM28.3535 13.1465C28.2597 13.0528 28.1326 13.0001 28 13.0001C27.8674 13.0001 27.7403 13.0528 27.6465 13.1465L26.939 13.854C26.525 9.47462 23.7446 5.67425 19.696 3.954C19.574 3.90202 19.4363 3.90063 19.3133 3.95014C19.1903 3.99965 19.092 4.096 19.04 4.218C18.988 4.34 18.9866 4.47765 19.0361 4.60068C19.0856 4.7237 19.182 4.82202 19.304 4.874C22.9359 6.41756 25.4605 9.79081 25.9175 13.7105L25.3535 13.1465C25.2592 13.0554 25.1329 13.005 25.0018 13.0062C24.8707 13.0073 24.7453 13.0599 24.6526 13.1526C24.5599 13.2453 24.5073 13.3707 24.5062 13.5018C24.505 13.6329 24.5554 13.7592 24.6465 13.8535L26.1465 15.3535C26.1929 15.4 26.2479 15.4369 26.3086 15.4621C26.3692 15.4873 26.4342 15.5003 26.4999 15.5004C26.5655 15.5005 26.6306 15.4876 26.6913 15.4626C26.752 15.4375 26.8071 15.4007 26.8536 15.3544L26.8545 15.3535L28.3545 13.8535C28.4481 13.7596 28.5006 13.6324 28.5004 13.4998C28.5002 13.3672 28.4474 13.2401 28.3535 13.1465ZM10.9855 4.3295C10.9839 4.30032 10.9795 4.27136 10.9725 4.243C10.9725 4.2385 10.967 4.2355 10.965 4.2305C10.963 4.2255 10.965 4.222 10.965 4.218C10.9514 4.19368 10.9356 4.17059 10.918 4.149C10.9018 4.11968 10.8827 4.09204 10.861 4.0665C10.8314 4.04032 10.7987 4.01797 10.7635 4C10.7459 3.98505 10.7272 3.97151 10.7075 3.9595L8.7075 3.046C8.58793 2.9969 8.45398 2.99602 8.33377 3.04354C8.21356 3.09106 8.11642 3.18328 8.06274 3.30087C8.00906 3.41846 8.003 3.55227 8.04583 3.67422C8.08867 3.79618 8.17708 3.89681 8.2925 3.955L9.328 4.4285C5.42969 6.51481 2.99719 10.5785 3 15C3 15.1326 3.05268 15.2598 3.14645 15.3536C3.24021 15.4473 3.36739 15.5 3.5 15.5C3.63261 15.5 3.75979 15.4473 3.85355 15.3536C3.94732 15.2598 4 15.1326 4 15C3.9975 11.1067 6.05631 7.503 9.4115 5.528L9.05 6.2835C8.99275 6.40287 8.98519 6.54008 9.02896 6.66502C9.07273 6.78997 9.16427 6.89245 9.2835 6.95C9.35091 6.98295 9.42497 7.00005 9.5 7C9.59408 6.99987 9.68622 6.9732 9.76582 6.92305C9.84542 6.8729 9.90926 6.80131 9.95 6.7165L10.95 4.63C10.95 4.625 10.95 4.6195 10.954 4.6145C10.967 4.58031 10.9761 4.54475 10.981 4.5085C10.9896 4.48156 10.9959 4.454 11 4.426C10.9983 4.39344 10.9935 4.36112 10.9855 4.3295Z" fill="#505050"/>
</svg>
