<svg width="32" height="32" viewBox="0 0 32 32" fill="none" xmlns="http://www.w3.org/2000/svg">
<path d="M16 0C15.7979 3.01107e-09 15.6041 0.0802719 15.4613 0.223157C15.3184 0.366042 15.2381 0.559835 15.2381 0.761905C15.2381 0.963975 15.3184 1.15777 15.4613 1.30065C15.6041 1.44354 15.7979 1.52381 16 1.52381C19.838 1.52811 23.5176 3.05466 26.2315 5.76854C28.9453 8.48242 30.4719 12.162 30.4762 16C30.4762 16.2021 30.5565 16.3959 30.6993 16.5387C30.8422 16.6816 31.036 16.7619 31.2381 16.7619C31.4402 16.7619 31.634 16.6816 31.7768 16.5387C31.9197 16.3959 32 16.2021 32 16C32 7.17816 24.8239 0 16 0ZM16 30.4762C12.162 30.4719 8.48242 28.9453 5.76854 26.2315C3.05466 23.5176 1.52811 19.838 1.52381 16C1.52381 15.7979 1.44354 15.6041 1.30065 15.4613C1.15777 15.3184 0.963975 15.2381 0.761905 15.2381C0.559835 15.2381 0.366042 15.3184 0.223157 15.4613C0.0802719 15.6041 3.01107e-09 15.7979 0 16C0 24.8218 7.17613 32 16 32C16.2021 32 16.3959 31.9197 16.5387 31.7768C16.6816 31.634 16.7619 31.4402 16.7619 31.2381C16.7619 31.036 16.6816 30.8422 16.5387 30.6993C16.3959 30.5565 16.2021 30.4762 16 30.4762Z" fill="#C59E52"/>
<path d="M16 4.06351C9.41713 4.06351 4.06348 9.41919 4.06348 16C4.06348 22.5808 9.41916 27.9365 16 27.9365C22.5808 27.9365 27.9365 22.5808 27.9365 16C27.9365 9.41919 22.5808 4.06351 16 4.06351ZM16 26.4127C10.2583 26.4127 5.58729 21.7417 5.58729 16C5.58729 10.2583 10.2583 5.58732 16 5.58732C21.7417 5.58732 26.4127 10.2583 26.4127 16C26.4127 21.7417 21.7417 26.4127 16 26.4127Z" fill="#C59E52"/>
<path d="M22.5175 13.2978L18.4865 12.7126L16.6824 9.05956C16.4284 8.53943 15.571 8.53943 15.317 9.05956L13.5128 12.7126L9.48185 13.2998C9.34055 13.3194 9.20761 13.3783 9.09823 13.4699C8.98886 13.5615 8.90747 13.682 8.86338 13.8176C8.81929 13.9533 8.81428 14.0986 8.84891 14.237C8.88355 14.3754 8.95644 14.5012 9.05925 14.6001L11.9768 17.4425L11.2901 21.4593C11.2654 21.5995 11.2806 21.7439 11.334 21.8759C11.3874 22.0079 11.4768 22.1222 11.592 22.2059C11.7072 22.2895 11.8436 22.3391 11.9857 22.349C12.1277 22.3589 12.2697 22.3287 12.3954 22.2618L15.9997 20.3662L19.604 22.2618C19.7299 22.3271 19.8714 22.356 20.0127 22.3454C20.1541 22.3348 20.2897 22.285 20.4044 22.2017C20.5191 22.1185 20.6083 22.0049 20.6622 21.8738C20.716 21.7427 20.7323 21.5992 20.7093 21.4593L20.0225 17.4425L22.9401 14.5981C23.0429 14.4992 23.1158 14.3734 23.1505 14.235C23.1851 14.0966 23.1801 13.9513 23.136 13.8156C23.0919 13.6799 23.0105 13.5594 22.9011 13.4679C22.7918 13.3763 22.6588 13.3173 22.5175 13.2978ZM18.6714 16.6298C18.5825 16.7162 18.5162 16.823 18.4783 16.941C18.4404 17.059 18.432 17.1845 18.454 17.3064L18.9478 20.1935L16.3552 18.8323C16.2456 18.7746 16.1236 18.7445 15.9997 18.7445C15.8758 18.7445 15.7538 18.7746 15.6441 18.8323L13.0516 20.1935L13.5453 17.3064C13.567 17.1848 13.5585 17.0597 13.5206 16.9421C13.4827 16.8245 13.4166 16.718 13.3279 16.6319L11.2251 14.5859L14.1264 14.1633C14.2486 14.1456 14.3646 14.0985 14.4644 14.0259C14.5642 13.9533 14.6449 13.8575 14.6994 13.7468L15.9997 11.1197L17.298 13.7468C17.4077 13.9723 17.6231 14.1288 17.8709 14.1633L20.7723 14.5859L18.6714 16.6298Z" fill="#C59E52"/>
</svg>
