<svg width="30" height="35" viewBox="0 0 30 35" fill="none" xmlns="http://www.w3.org/2000/svg">
<path d="M14.9999 18.4689C9.90894 18.4689 5.7655 14.3254 5.7655 9.23443C5.7655 4.14345 9.90894 0 14.9999 0C20.0909 0 24.2344 4.14345 24.2344 9.23443C24.2344 14.3254 20.0909 18.4689 14.9999 18.4689ZM14.9999 2.40898C11.2419 2.40898 8.17448 5.47642 8.17448 9.23443C8.17448 12.9924 11.2419 16.0599 14.9999 16.0599C18.7579 16.0599 21.8254 12.9924 21.8254 9.23443C21.8254 5.47642 18.7579 2.40898 14.9999 2.40898ZM28.7954 34.5287C28.1369 34.5287 27.5909 33.9827 27.5909 33.3242C27.5909 27.7836 21.9378 23.2868 14.9999 23.2868C8.06206 23.2868 2.40898 27.7836 2.40898 33.3242C2.40898 33.9827 1.86295 34.5287 1.20449 34.5287C0.546036 34.5287 0 33.9827 0 33.3242C0 26.4667 6.72909 20.8778 14.9999 20.8778C23.2708 20.8778 29.9998 26.4667 29.9998 33.3242C29.9998 33.9827 29.4538 34.5287 28.7954 34.5287Z" fill="#505050"/>
</svg>
