<svg width="114" height="114" viewBox="0 0 114 114" fill="none" xmlns="http://www.w3.org/2000/svg">
<path d="M11.3994 11.4H22.7994V22.8H11.3994V11.4ZM79.7994 0V5.7H74.0994V11.4H79.7994V34.2H85.4994V39.9H79.7994V45.6H91.1994V34.2H108.299V39.9H113.999V0H79.7994ZM108.299 28.5H85.4994V5.7H108.299V28.5Z" fill="black"/>
<path d="M91.2 11.4H102.6V22.8H91.2V11.4ZM11.4 91.2H22.8V102.6H11.4V91.2ZM79.8 79.8H85.5V85.5H79.8V79.8ZM51.3 108.3H57V114H51.3V108.3ZM57 85.5H62.7V91.2H57V85.5ZM57 96.9H62.7V102.6H57V96.9ZM108.3 68.4H114V74.1H108.3V68.4ZM0 68.4H5.7V74.1H0V68.4ZM0 39.9H5.7V45.6H0V39.9ZM62.7 5.69998V11.4H51.3V17.1H68.4V5.69998H62.7Z" fill="black"/>
<path d="M108.299 45.6V51.3H96.8994V57H79.7994V51.3H74.0994V57H62.6994V62.7H79.7994V68.4H62.6994V62.7H56.9994V68.4H51.2994V62.7H45.5994V68.4H39.8994V74.1H51.2994V79.8H56.9994V74.1H68.3994V79.8H62.6994V85.5H68.3994V96.9H74.0994V102.6H79.7994V96.9H96.8994V85.5H102.599V79.8H96.8994V68.4H85.4994V62.7H96.8994V68.4H102.599V62.7H108.299V57H113.999V45.6H108.299ZM91.1994 74.1V91.2H74.0994V74.1H91.1994ZM74.0994 34.2H68.3994V39.9H62.6994V51.3H68.3994V45.6H74.0994V39.9H79.7994V34.2H74.0994ZM62.6994 108.3H74.0994V114H62.6994V108.3ZM45.5994 5.69998H51.2994V11.4H45.5994V5.69998Z" fill="black"/>
<path d="M91.2 45.6H96.9V51.3H91.2V45.6ZM96.9 39.9H102.6V45.6H96.9V39.9ZM22.8 68.4H28.5V74.1H22.8V68.4ZM34.2 108.3V85.5H39.9V74.1H34.2V79.8H17.1V74.1H5.7V79.8H0V114H45.6V108.3H34.2ZM28.5 108.3H5.7V85.5H28.5V108.3ZM34.2 34.2H39.9V39.9H34.2V34.2Z" fill="black"/>
<path d="M39.9 0H0V34.2H5.7V39.9H11.4V34.2H17.1V39.9H22.8V34.2H34.2V22.8H39.9V17.1H34.2V5.7H45.6V0H39.9ZM28.5 28.5H5.7V5.7H28.5V28.5ZM68.4 17.1H74.1V22.8H68.4V17.1ZM57 0H62.7V5.7H57V0Z" fill="black"/>
<path d="M68.4 34.2V28.5H62.7V22.8H57V28.5H45.6V22.8H39.9V34.2H45.6V45.6H28.5V39.9H22.8V45.6H5.7V51.3H17.1V57H0V62.7H17.1V68.4H22.8V62.7H28.5V68.4H34.2V62.7H45.6V57H39.9V51.3H51.3V57H62.7V51.3H57V45.6H51.3V34.2H68.4ZM34.2 57H22.8V51.3H34.2V57ZM51.3 91.2V79.8H45.6V85.5H39.9V91.2H45.6V96.9H39.9V102.6H51.3V96.9H57V91.2H51.3ZM102.6 102.6V96.9H96.9V102.6H79.8V108.3H91.2V114H96.9V108.3H108.3V114H114V102.6H102.6ZM108.3 79.8V85.5H102.6V91.2H114V79.8H108.3Z" fill="black"/>
</svg>
