<svg width="32" height="32" viewBox="0 0 32 32" fill="none" xmlns="http://www.w3.org/2000/svg">
<path d="M26.4321 16.768C26.3041 16.128 26.0481 15.808 25.7281 15.616C25.7281 15.232 25.6641 14.784 25.6001 14.4C25.7281 14.08 25.7921 13.76 25.8561 13.376C25.9841 12.736 25.8561 12.032 25.7921 11.328C25.6641 10.304 25.5361 9.21601 25.2161 8.25601C25.0241 7.61601 24.6401 6.91201 24.0641 6.59201C23.8721 6.46401 23.6161 6.40001 23.4241 6.27201L23.0401 5.88801C19.1361 1.34401 11.8401 2.68801 8.06414 6.65601C7.16814 7.61601 6.46414 8.70401 5.88814 9.85601C5.76014 10.176 5.63214 10.56 5.56814 10.944C5.50414 11.392 5.56814 11.84 5.63214 12.224C5.82414 13.376 6.14414 14.464 6.52814 15.552H6.59214C6.27214 15.744 6.01614 16.064 5.88814 16.704C5.56814 18.112 6.27214 19.136 7.16814 19.584C7.68014 21.632 8.57614 23.68 9.72814 25.408C10.8161 27.008 13.0561 28.288 14.7201 29.056C15.2321 29.248 15.7441 29.376 16.2561 29.376C16.7681 29.376 17.2801 29.248 17.7921 29.056C19.4561 28.288 21.6321 27.072 22.7201 25.472C23.9361 23.744 24.8321 21.696 25.3441 19.584C26.1761 19.264 26.6881 18.24 26.4321 16.768ZM21.6321 24.896C20.6721 26.304 18.4321 27.456 17.2161 28.032C16.5761 28.288 15.8721 28.288 15.2321 28.032C13.9521 27.456 11.7121 26.24 10.7521 24.832C9.34414 22.784 8.38414 20.16 8.06414 17.728H8.12814C8.06414 16.448 8.06414 15.104 8.19214 13.824C8.32014 13.056 8.57614 12.352 8.89614 11.712C9.40814 11.264 10.2401 11.328 10.9441 11.392C11.7121 11.52 12.4161 11.712 13.1201 11.968C15.1041 12.544 17.0241 13.312 19.0721 12.992C20.2241 12.8 21.3121 12.288 22.4641 12.416C22.7201 12.416 22.9761 12.48 23.1041 12.672C23.4881 13.12 23.0401 13.824 23.1041 14.4C23.1681 14.656 23.2961 14.912 23.4241 15.104C23.8721 15.872 24.1281 16.768 24.1281 17.728H24.1921C24.0641 20.16 23.0401 22.784 21.6321 24.896ZM30.2081 24.576C29.5681 24.576 29.0561 25.088 29.0561 25.728V29.12H25.6641C25.0241 29.12 24.5121 29.632 24.5121 30.272C24.5121 30.912 25.0241 31.424 25.6641 31.424H30.2081C30.8481 31.424 31.3601 30.912 31.3601 30.272V25.728C31.3601 25.088 30.8481 24.576 30.2081 24.576ZM6.33614 29.056H2.94414V25.664C2.94414 25.024 2.43214 24.512 1.79214 24.512C1.15214 24.512 0.640137 25.088 0.640137 25.664V30.208C0.640137 30.848 1.15214 31.36 1.79214 31.36H6.33614C6.97614 31.36 7.48814 30.848 7.48814 30.208C7.42414 29.568 6.91214 29.056 6.33614 29.056ZM1.79214 7.42401C2.43214 7.42401 2.94414 6.91201 2.94414 6.27201V2.94401H6.33614C6.97614 2.94401 7.48814 2.43201 7.48814 1.79201C7.48814 1.15201 6.91214 0.640015 6.33614 0.640015H1.79214C1.15214 0.640015 0.640137 1.15201 0.640137 1.79201V6.33601C0.640137 6.91201 1.15214 7.42401 1.79214 7.42401ZM30.2081 0.640015H25.6641C25.0241 0.640015 24.5121 1.15201 24.5121 1.79201C24.5121 2.43201 25.0241 2.94401 25.6641 2.94401H29.0561V6.33601C29.0561 6.97601 29.5681 7.48801 30.2081 7.48801C30.8481 7.48801 31.3601 6.97601 31.3601 6.33601V1.79201C31.3601 1.15201 30.8481 0.640015 30.2081 0.640015Z" fill="#C59E52"/>
</svg>
