<svg width="32" height="31" viewBox="0 0 32 31" fill="none" xmlns="http://www.w3.org/2000/svg">
<path d="M26.0684 17.7807L28.1731 12.1367C28.7089 10.8897 29.7922 11.1215 29.7922 11.1215C30.6306 11.2749 31.0818 11.962 30.9862 12.7316L29.0556 20.4926C28.5569 22.4866 27.1669 24.431 25.5485 25.6876L22.2127 28.0742V29.4816C22.2127 29.8184 21.9398 30.0913 21.603 30.0913H16.0088V26.5535C16.0088 26.5535 15.6443 22.5244 19.4726 20.1976L24.0492 17.26C24.2743 17.1149 24.5365 17.0378 24.8044 17.0379C25.1661 17.0379 25.5245 17.1782 25.7948 17.4484C26.3306 17.9849 26.3416 18.8516 25.8189 19.4011L22.7369 21.8318" stroke="#505050" stroke-width="1.21946" stroke-miterlimit="10" stroke-linecap="round" stroke-linejoin="round"/>
<path d="M9.26206 21.8318L6.18005 19.4011C5.65733 18.8516 5.66831 17.9849 6.20414 17.4484C6.33412 17.3182 6.48851 17.2149 6.65847 17.1445C6.82842 17.074 7.0106 17.0378 7.19459 17.0378C7.45525 17.0378 7.71798 17.1108 7.9498 17.26L12.5264 20.1976C16.3546 22.5244 15.9901 26.5535 15.9901 26.5535V30.0913H10.396C10.0592 30.0913 9.78625 29.8184 9.78625 29.4816V28.0742L6.45047 25.6876C4.83206 24.431 3.44206 22.4866 2.94342 20.4926L1.01265 12.7316C0.91704 11.9619 1.36824 11.2748 2.20668 11.1214C2.20668 11.1214 3.28993 10.8897 3.82576 12.1366L5.93043 17.7807M13.2265 16.7818H12.4546C12.1179 16.7818 11.8449 16.5088 11.8449 16.172V12.9029C11.8449 11.58 12.9173 10.5076 14.2402 10.5076H17.7586C19.0815 10.5076 20.1539 11.58 20.1539 12.9029V16.172C20.1539 16.5088 19.881 16.7818 19.5442 16.7818H18.7823" stroke="#505050" stroke-width="1.21946" stroke-miterlimit="10" stroke-linecap="round" stroke-linejoin="round"/>
<path d="M15.9994 10.5076C17.5608 10.5076 18.8266 9.24177 18.8266 7.68032C18.8266 6.11887 17.5608 4.85306 15.9994 4.85306C14.4379 4.85306 13.1721 6.11887 13.1721 7.68032C13.1721 9.24177 14.4379 10.5076 15.9994 10.5076Z" stroke="#505050" stroke-width="1.21946" stroke-miterlimit="10" stroke-linecap="round" stroke-linejoin="round"/>
<path d="M18.9102 6.6546H22.5664C23.8893 6.6546 24.9617 7.72706 24.9617 9.04993V12.2788C24.9617 12.6376 24.6708 12.9286 24.3119 12.9286H20.1505" stroke="#505050" stroke-width="1.21946" stroke-miterlimit="10" stroke-linecap="round" stroke-linejoin="round"/>
<path d="M20.8072 6.65452C22.3687 6.65452 23.6345 5.38871 23.6345 3.82726C23.6345 2.26581 22.3687 1 20.8072 1C19.2458 1 17.98 2.26581 17.98 3.82726C17.98 5.38871 19.2458 6.65452 20.8072 6.65452Z" stroke="#505050" stroke-width="1.21946" stroke-miterlimit="10" stroke-linecap="round" stroke-linejoin="round"/>
<path d="M11.8483 12.9286H7.6869C7.32801 12.9286 7.03711 12.6376 7.03711 12.2788V9.04993C7.03711 7.727 8.10957 6.6546 9.43244 6.6546H13.1721" stroke="#505050" stroke-width="1.21946" stroke-miterlimit="10" stroke-linecap="round" stroke-linejoin="round"/>
<path d="M11.1915 6.65452C12.753 6.65452 14.0188 5.38871 14.0188 3.82726C14.0188 2.26581 12.753 1 11.1915 1C9.63007 1 8.36426 2.26581 8.36426 3.82726C8.36426 5.38871 9.63007 6.65452 11.1915 6.65452Z" stroke="#505050" stroke-width="1.21946" stroke-miterlimit="10" stroke-linecap="round" stroke-linejoin="round"/>
</svg>
