<svg width="58" height="58" viewBox="0 0 58 58" fill="none" xmlns="http://www.w3.org/2000/svg">
<path d="M29 7.25C26.1437 7.25 23.3155 7.81258 20.6766 8.90562C18.0378 9.99866 15.6401 11.6008 13.6204 13.6204C11.6008 15.6401 9.99866 18.0378 8.90562 20.6766C7.81258 23.3155 7.25 26.1437 7.25 29C7.25 31.8563 7.81258 34.6845 8.90562 37.3234C9.99866 39.9622 11.6008 42.3599 13.6204 44.3796C15.6401 46.3992 18.0378 48.0013 20.6766 49.0944C23.3155 50.1874 26.1437 50.75 29 50.75C34.7685 50.75 40.3007 48.4585 44.3796 44.3796C48.4585 40.3007 50.75 34.7685 50.75 29C50.75 23.2315 48.4585 17.6993 44.3796 13.6204C40.3007 9.54151 34.7685 7.25 29 7.25ZM29 3.625C35.7299 3.625 42.1841 6.29843 46.9428 11.0572C51.7016 15.8159 54.375 22.2701 54.375 29C54.375 35.7299 51.7016 42.1841 46.9428 46.9428C42.1841 51.7016 35.7299 54.375 29 54.375C22.2701 54.375 15.8159 51.7016 11.0572 46.9428C6.29843 42.1841 3.625 35.7299 3.625 29C3.625 22.2701 6.29843 15.8159 11.0572 11.0572C15.8159 6.29843 22.2701 3.625 29 3.625Z" fill="#919191"/>
<path d="M36.25 16.3125C38.6667 16.3125 39.875 17.5208 39.875 19.9375C39.875 22.3542 38.6667 23.5625 36.25 23.5625C33.8334 23.5625 32.625 22.3542 32.625 19.9375C32.625 17.5208 33.8334 16.3125 36.25 16.3125ZM12.1583 44.7832L9.5918 42.2167L20.1079 31.7043C21.0181 30.7936 22.222 30.2355 23.5051 30.1293C24.7883 30.0231 26.0675 30.3757 27.115 31.1243L34.945 36.714C35.2797 36.9525 35.6855 37.0702 36.0958 37.0478C36.5062 37.0255 36.8967 36.8643 37.2034 36.5907L51.3554 23.925L53.7697 26.6292L39.6213 39.2914C38.7008 40.1152 37.5272 40.601 36.2938 40.6689C35.0604 40.7367 33.8406 40.3826 32.8353 39.6647L25.0053 34.0714C24.6562 33.8235 24.2307 33.7071 23.8041 33.7429C23.3774 33.7788 22.9772 33.9645 22.6744 34.2671L12.1583 44.7796V44.7832Z" fill="#919191"/>
</svg>
