<svg width="33" height="29" viewBox="0 0 33 29" fill="none" xmlns="http://www.w3.org/2000/svg">
<path d="M24.766 18.876C24.2556 18.876 23.8413 19.2902 23.8413 19.8007V25.3719C23.8413 26.0857 23.2606 26.6665 22.5467 26.6665H3.14402C2.43014 26.6665 1.84942 26.0857 1.84942 25.3719V5.23165C2.26127 5.39608 2.70056 5.48092 3.14402 5.48169H22.5474C23.2613 5.48169 23.842 6.06241 23.842 6.77629V10.4596C23.842 10.7048 23.9395 10.9401 24.1129 11.1135C24.2863 11.2869 24.5215 11.3843 24.7667 11.3843C25.012 11.3843 25.2472 11.2869 25.4206 11.1135C25.594 10.9401 25.6915 10.7048 25.6915 10.4596V6.77629C25.6905 5.94274 25.3589 5.14362 24.7695 4.55421C24.1801 3.9648 23.381 3.63325 22.5474 3.63227H22.2611V2.74085C22.2611 1.23024 20.8511 0 19.1171 0H3.14402C1.41074 0 0 1.2295 0 2.74085C0 2.81778 0.0192341 2.89028 0.025892 2.965C0.0192341 3.00938 0 3.04859 0 3.09446V25.3726C0.000978915 26.2062 0.332537 27.0053 0.921943 27.5947C1.51135 28.1841 2.31047 28.5156 3.14402 28.5166H22.5474C23.381 28.5158 24.1803 28.1844 24.7697 27.5949C25.3592 27.0055 25.6907 26.2062 25.6915 25.3726V19.8014C25.6913 19.556 25.5937 19.3207 25.4202 19.1472C25.2467 18.9737 25.0114 18.8762 24.766 18.876ZM3.14402 1.85016H19.1171C19.8073 1.85016 20.4117 2.26665 20.4117 2.74159V3.63301H3.14402C2.45456 3.63301 1.84942 3.21652 1.84942 2.74159C1.84942 2.26665 2.45456 1.85016 3.14402 1.85016ZM32.1726 12.582L27.7465 10.6379C27.5224 10.5417 27.2694 10.538 27.0425 10.6276C26.8157 10.7171 26.6334 10.8927 26.5353 11.116C26.4373 11.3393 26.4314 11.5923 26.519 11.8199C26.6066 12.0475 26.7806 12.2313 27.0031 12.3312L29.0759 13.2411C25.6907 14.2909 19.0631 16.0826 15.0092 15.4449C14.8879 15.4229 14.7634 15.4254 14.6431 15.4521C14.5228 15.4789 14.409 15.5295 14.3085 15.6009C14.208 15.6723 14.1228 15.7631 14.0579 15.8679C13.993 15.9727 13.9497 16.0894 13.9306 16.2112C13.9114 16.333 13.9168 16.4574 13.9465 16.577C13.9761 16.6967 14.0294 16.8092 14.1031 16.908C14.1769 17.0068 14.2696 17.0898 14.3759 17.1522C14.4822 17.2146 14.6 17.2551 14.7222 17.2714C15.3998 17.3787 16.1329 17.426 16.903 17.426C21.4822 17.426 27.3404 15.7467 30.1722 14.8398L29.0115 17.483C28.9627 17.5942 28.9363 17.714 28.9338 17.8354C28.9312 17.9569 28.9526 18.0776 28.9968 18.1908C29.0409 18.304 29.1069 18.4073 29.191 18.495C29.2751 18.5827 29.3756 18.6529 29.4868 18.7017C29.5981 18.7506 29.7178 18.777 29.8393 18.7795C29.9607 18.7821 30.0815 18.7606 30.1947 18.7165C30.4232 18.6274 30.607 18.4511 30.7056 18.2264L32.6497 13.7997C32.7471 13.5748 32.7516 13.3206 32.6622 13.0924C32.5728 12.8643 32.3968 12.6808 32.1726 12.582Z" fill="#C59E52"/>
</svg>
