<svg width="30" height="19" viewBox="0 0 30 19" fill="none" xmlns="http://www.w3.org/2000/svg">
<path d="M3.11984 18.964C4.82681 18.9617 6.21374 17.571 6.21145 15.8641C6.2103 15.0068 5.86113 14.2324 5.29513 13.6717L9.76326 7.00624C10.0778 7.11438 10.4148 7.17382 10.7667 7.17334C11.0437 7.17297 11.3094 7.13144 11.5639 7.06372L16.0797 13.6572C15.7918 13.9447 15.5634 14.2863 15.4078 14.6623C15.2522 15.0383 15.1724 15.4414 15.173 15.8483C15.1753 17.5553 16.566 18.9422 18.2729 18.9399C19.9799 18.9376 21.3594 17.5507 21.3571 15.8438C21.3559 15.0015 21.0143 14.2346 20.4632 13.6775L25.4516 6.97398C25.7737 7.08959 26.122 7.15276 26.4851 7.15227C28.192 7.14998 29.5789 5.75934 29.5767 4.05237C29.5744 2.3454 28.1837 0.962216 26.4768 0.964505C24.7698 0.966793 23.3829 2.35744 23.3852 4.06441C23.3862 4.86923 23.6979 5.59877 24.2003 6.14837L19.182 12.8932C18.8899 12.8037 18.5791 12.7517 18.2572 12.7521C17.9465 12.7526 17.6433 12.8016 17.3589 12.8881L12.8731 6.33575C13.475 5.7697 13.8558 4.96811 13.8546 4.07719C13.8523 2.37022 12.4616 0.983294 10.7547 0.985582C9.04769 0.98787 7.66077 2.37852 7.66306 4.08549C7.66415 4.90154 7.98333 5.6423 8.50066 6.19562L4.00639 12.906C3.7163 12.8177 3.41477 12.7727 3.11154 12.7724C1.40457 12.7747 0.0176499 14.1654 0.0199383 15.8724C0.0222267 17.5793 1.41287 18.9662 3.11984 18.964ZM26.4788 2.46185C27.3585 2.46067 28.0781 3.17469 28.0793 4.05812C28.0805 4.94155 27.3665 5.65749 26.4831 5.65867C25.5996 5.65986 24.8837 4.94209 24.8825 4.0624C24.8813 3.18271 25.5991 2.46303 26.4788 2.46185ZM18.2592 14.2495C19.1389 14.2483 19.8585 14.9623 19.8597 15.8458C19.8609 16.7292 19.1469 17.4451 18.2635 17.4463C17.38 17.4475 16.6641 16.7297 16.6629 15.85C16.6617 14.9704 17.3795 14.2507 18.2592 14.2495ZM10.7567 2.48292C11.6364 2.48175 12.356 3.19576 12.3572 4.0792C12.3584 4.96263 11.6444 5.67857 10.761 5.67975C9.87752 5.68094 9.16158 4.96317 9.1604 4.08348C9.15922 3.20379 9.87698 2.4841 10.7567 2.48292ZM3.11355 14.2698C3.99324 14.2686 4.71292 14.9826 4.71411 15.8661C4.71529 16.7495 3.99753 17.4654 3.11784 17.4666C2.23815 17.4678 1.51846 16.75 1.51728 15.8703C1.5161 14.9907 2.23012 14.271 3.11355 14.2698Z" fill="#C59E52"/>
</svg>
