<svg width="30" height="20" viewBox="0 0 30 20" fill="none" xmlns="http://www.w3.org/2000/svg">
<path d="M29.6007 5.83743L24.146 0.382795C23.8888 0.134394 23.5444 -0.00305544 23.1868 5.15499e-05C22.8293 0.00315854 22.4872 0.146573 22.2344 0.399406C21.9816 0.65224 21.8382 0.994263 21.8351 1.35181C21.832 1.70936 21.9694 2.05382 22.2178 2.31101L25.3447 5.43788H6.818C6.45634 5.43788 6.10949 5.58155 5.85375 5.83729C5.59802 6.09302 5.45435 6.43987 5.45435 6.80154C5.45435 7.1632 5.59802 7.51005 5.85375 7.76579C6.10949 8.02153 6.45634 8.1652 6.818 8.1652H28.6365C28.9062 8.16514 29.1698 8.08513 29.394 7.93529C29.6182 7.78544 29.7929 7.57249 29.8961 7.32335C29.9993 7.07421 30.0263 6.80007 29.9737 6.53558C29.9211 6.2711 29.7913 6.02814 29.6007 5.83743ZM23.1819 10.8925H1.36337C1.0937 10.8926 0.830112 10.9726 0.605913 11.1224C0.381714 11.2723 0.206975 11.4852 0.103787 11.7344C0.000598813 11.9835 -0.0264061 12.2576 0.0261869 12.5221C0.0787799 12.7866 0.20861 13.0296 0.399262 13.2203L5.8539 18.6749C6.11109 18.9233 6.45555 19.0608 6.8131 19.0577C7.17064 19.0546 7.51267 18.9111 7.7655 18.6583C8.01833 18.4055 8.16175 18.0634 8.16486 17.7059C8.16796 17.3484 8.03051 17.0039 7.78211 16.7467L4.65524 13.6198H23.1819C23.5436 13.6198 23.8904 13.4762 24.1462 13.2204C24.4019 12.9647 24.5456 12.6178 24.5456 12.2562C24.5456 11.8945 24.4019 11.5477 24.1462 11.2919C23.8904 11.0362 23.5436 10.8925 23.1819 10.8925Z" fill="#505050"/>
</svg>
