<svg width="20" height="20" viewBox="0 0 20 20" fill="none" xmlns="http://www.w3.org/2000/svg">
<path d="M19.0914 10.9086C18.8503 10.9086 18.6191 11.0044 18.4486 11.1749C18.2781 11.3454 18.1823 11.5766 18.1823 11.8177V15.6479C18.1816 16.3196 17.9144 16.9637 17.4394 17.4387C16.9644 17.9137 16.3204 18.1808 15.6486 18.1816H4.35194C3.68018 18.1808 3.03614 17.9137 2.56114 17.4387C2.08613 16.9637 1.81895 16.3196 1.81823 15.6479V11.8177C1.81823 11.5766 1.72245 11.3454 1.55196 11.1749C1.38147 11.0044 1.15023 10.9086 0.909117 10.9086C0.668004 10.9086 0.436766 11.0044 0.266274 11.1749C0.0957816 11.3454 0 11.5766 0 11.8177V15.6479C0.00120329 16.8017 0.460097 17.9079 1.27598 18.7238C2.09187 19.5397 3.1981 19.9986 4.35194 19.9998H15.6486C16.8025 19.9986 17.9087 19.5397 18.7246 18.7238C19.5405 17.9079 19.9994 16.8017 20.0006 15.6479V11.8177C20.0006 11.5766 19.9048 11.3454 19.7343 11.1749C19.5638 11.0044 19.3326 10.9086 19.0914 10.9086Z" fill="#828282"/>
<path d="M5.18913 7.00576L9.09197 3.10292V14.5451C9.09197 14.7862 9.18775 15.0174 9.35824 15.1879C9.52873 15.3584 9.75997 15.4542 10.0011 15.4542C10.2422 15.4542 10.4734 15.3584 10.6439 15.1879C10.8144 15.0174 10.9102 14.7862 10.9102 14.5451V3.10292L14.813 7.00576C14.9845 7.17136 15.2141 7.26299 15.4525 7.26092C15.6909 7.25885 15.9189 7.16324 16.0875 6.99468C16.256 6.82612 16.3516 6.59811 16.3537 6.35974C16.3558 6.12137 16.2641 5.89173 16.0985 5.72027L10.6438 0.265567C10.4733 0.0951336 10.2421 -0.000610352 10.0011 -0.000610352C9.76002 -0.000610352 9.52882 0.0951336 9.35834 0.265567L3.90364 5.72027C3.73803 5.89173 3.6464 6.12137 3.64847 6.35974C3.65054 6.59811 3.74615 6.82612 3.91471 6.99468C4.08327 7.16324 4.31129 7.25885 4.54965 7.26092C4.78802 7.26299 5.01767 7.17136 5.18913 7.00576Z" fill="#828282"/>
</svg>
