<svg width="48" height="48" viewBox="0 0 48 48" fill="none" xmlns="http://www.w3.org/2000/svg">
<path d="M26.6184 24.4367H21.3819V21.6003C16.8001 21.8185 13.0909 22.9094 12 24.0003C13.0909 25.3094 18.1092 26.4003 24.0002 26.4003C29.8911 26.4003 34.9094 25.3094 36.0003 24.0003C34.9094 22.9094 31.2003 22.0367 26.6184 21.8185V24.4367Z" fill="#009393"/>
<path d="M24.0003 0C10.6911 0 0 10.6911 0 24.0003C0 37.3096 10.6911 48.0006 24.0003 48.0006C37.3096 48.0006 48.0006 37.3096 48.0006 24.0003C48.0006 10.6911 37.3096 0 24.0003 0ZM36.4369 25.5276C36.4369 27.0549 32.2913 28.1458 26.6185 28.364V35.1277H21.3821V28.364C15.9275 28.1458 11.782 26.8367 11.782 25.5276V22.473C11.782 20.9457 15.9275 19.8548 21.3821 19.6366V16.8002H13.5275V12.8729H34.4732V16.8002H26.6185V19.6366C32.0732 19.8548 36.2187 21.1639 36.4369 22.473V25.5276Z" fill="#009393"/>
</svg>
