<svg width="28" height="34" viewBox="0 0 28 34" fill="none" xmlns="http://www.w3.org/2000/svg">
<path d="M23.8 0H3.4C2.49854 0.00090011 1.63426 0.359402 0.996831 0.996831C0.359403 1.63426 0.00090011 2.49854 0 3.4V5.1C0 5.40058 0.119404 5.68885 0.331946 5.90139C0.544487 6.11393 0.832755 6.23333 1.13333 6.23333H5.66667V32.4853C5.6665 32.6908 5.72223 32.8926 5.82789 33.0689C5.93355 33.2451 6.08516 33.3894 6.2665 33.4861C6.44784 33.5829 6.65208 33.6285 6.85735 33.6181C7.06262 33.6077 7.2612 33.5417 7.43183 33.4271L9.63333 31.96L12.406 33.8045C12.5935 33.9317 12.8147 33.9998 13.0413 34C13.2642 34.0005 13.4819 33.9322 13.6646 33.8045L16.4356 31.9572L19.2032 33.8022C19.3892 33.929 19.6091 33.9968 19.8342 33.9968C20.0593 33.9968 20.2792 33.929 20.4652 33.8022L23.2333 31.96L25.4433 33.4333C25.6143 33.5459 25.8126 33.6101 26.0171 33.6191C26.2216 33.628 26.4248 33.5814 26.6049 33.4842C26.7851 33.387 26.9355 33.2427 27.0403 33.0669C27.1451 32.891 27.2003 32.69 27.2 32.4853V3.4C27.1991 2.49854 26.8406 1.63426 26.2032 0.996831C25.5657 0.359402 24.7015 0.00090011 23.8 0ZM1.13333 5.1V3.4C1.13333 2.79884 1.37214 2.22231 1.79722 1.79722C2.22231 1.37214 2.79884 1.13333 3.4 1.13333C4.00116 1.13333 4.57769 1.37214 5.00278 1.79722C5.42786 2.22231 5.66667 2.79884 5.66667 3.4V5.1H1.13333ZM23.8527 31.0125C23.6667 30.8903 23.4487 30.8255 23.2261 30.8263C23.0035 30.8271 22.7861 30.8935 22.6009 31.0171L19.8362 32.8667L17.0595 31.0154C16.8735 30.8931 16.6559 30.8276 16.4333 30.8267C16.2115 30.8271 15.9947 30.893 15.81 31.0159L13.0333 32.8633L10.2504 31.0125C10.0639 30.892 9.84634 30.8283 9.62425 30.829C9.40215 30.8297 9.18503 30.8948 8.99923 31.0165L6.8 32.4853V3.4C6.80064 2.56313 6.49138 1.75566 5.93187 1.13333H23.8C24.4012 1.13333 24.9777 1.37214 25.4028 1.79722C25.8279 2.22231 26.0667 2.79884 26.0667 3.4L26.0695 32.4904L23.8527 31.0125Z" fill="#C59E52"/>
<path d="M10.7667 21.5333C11.0672 21.5333 11.3555 21.6527 11.5681 21.8653C11.7806 22.0778 11.9 22.3661 11.9 22.6667C11.9 22.817 11.9597 22.9611 12.066 23.0674C12.1722 23.1736 12.3164 23.2333 12.4667 23.2333C12.617 23.2333 12.7611 23.1736 12.8674 23.0674C12.9736 22.9611 13.0333 22.817 13.0333 22.6667C13.0315 22.1656 12.8636 21.6793 12.556 21.2838C12.2485 20.8882 11.8185 20.6057 11.3333 20.4805V20.4C11.3333 20.2497 11.2736 20.1056 11.1674 19.9993C11.0611 19.893 10.917 19.8333 10.7667 19.8333C10.6164 19.8333 10.4722 19.893 10.366 19.9993C10.2597 20.1056 10.2 20.2497 10.2 20.4V20.4805C9.66641 20.6178 9.20129 20.9452 8.89193 21.4011C8.58258 21.857 8.45026 22.4102 8.51981 22.9568C8.58937 23.5034 8.85602 24.0058 9.26971 24.3697C9.6834 24.7336 10.2157 24.934 10.7667 24.9333C10.9908 24.9333 11.2099 24.9998 11.3963 25.1243C11.5827 25.2489 11.728 25.4259 11.8137 25.633C11.8995 25.8401 11.922 26.0679 11.8782 26.2878C11.8345 26.5076 11.7266 26.7096 11.5681 26.8681C11.4096 27.0266 11.2076 27.1345 10.9878 27.1782C10.7679 27.222 10.54 27.1995 10.333 27.1137C10.1259 27.028 9.94887 26.8827 9.82433 26.6963C9.6998 26.5099 9.63333 26.2908 9.63333 26.0667C9.63333 25.9164 9.57363 25.7723 9.46736 25.666C9.36109 25.5597 9.21696 25.5 9.06667 25.5C8.91638 25.5 8.77224 25.5597 8.66597 25.666C8.5597 25.7723 8.5 25.9164 8.5 26.0667C8.50188 26.5677 8.66972 27.054 8.9773 27.4496C9.28488 27.8451 9.71485 28.1276 10.2 28.2529V28.3333C10.2 28.4836 10.2597 28.6278 10.366 28.734C10.4722 28.8403 10.6164 28.9 10.7667 28.9C10.917 28.9 11.0611 28.8403 11.1674 28.734C11.2736 28.6278 11.3333 28.4836 11.3333 28.3333V28.2529C11.8669 28.1155 12.332 27.7882 12.6414 27.3322C12.9508 26.8763 13.0831 26.3231 13.0135 25.7766C12.944 25.23 12.6773 24.7276 12.2636 24.3637C11.8499 23.9998 11.3176 23.7993 10.7667 23.8C10.4661 23.8 10.1778 23.6806 9.96528 23.4681C9.75274 23.2555 9.63333 22.9673 9.63333 22.6667C9.63333 22.3661 9.75274 22.0778 9.96528 21.8653C10.1778 21.6527 10.4661 21.5333 10.7667 21.5333ZM23.8 20.9667H14.7333C14.583 20.9667 14.4389 21.0264 14.3326 21.1326C14.2264 21.2389 14.1667 21.3831 14.1667 21.5333C14.1667 21.6836 14.2264 21.8278 14.3326 21.934C14.4389 22.0403 14.583 22.1 14.7333 22.1H23.8C23.9503 22.1 24.0944 22.0403 24.2007 21.934C24.307 21.8278 24.3667 21.6836 24.3667 21.5333C24.3667 21.3831 24.307 21.2389 24.2007 21.1326C24.0944 21.0264 23.9503 20.9667 23.8 20.9667ZM23.8 17.5667H9.06667C8.91638 17.5667 8.77224 17.6264 8.66597 17.7326C8.5597 17.8389 8.5 17.9831 8.5 18.1333C8.5 18.2836 8.5597 18.4278 8.66597 18.534C8.77224 18.6403 8.91638 18.7 9.06667 18.7H23.8C23.9503 18.7 24.0944 18.6403 24.2007 18.534C24.307 18.4278 24.3667 18.2836 24.3667 18.1333C24.3667 17.9831 24.307 17.8389 24.2007 17.7326C24.0944 17.6264 23.9503 17.5667 23.8 17.5667ZM23.8 14.1667H9.06667C8.91638 14.1667 8.77224 14.2264 8.66597 14.3326C8.5597 14.4389 8.5 14.5831 8.5 14.7333C8.5 14.8836 8.5597 15.0278 8.66597 15.134C8.77224 15.2403 8.91638 15.3 9.06667 15.3H23.8C23.9503 15.3 24.0944 15.2403 24.2007 15.134C24.307 15.0278 24.3667 14.8836 24.3667 14.7333C24.3667 14.5831 24.307 14.4389 24.2007 14.3326C24.0944 14.2264 23.9503 14.1667 23.8 14.1667ZM23.8 27.7667H14.7333C14.583 27.7667 14.4389 27.8264 14.3326 27.9326C14.2264 28.0389 14.1667 28.1831 14.1667 28.3333C14.1667 28.4836 14.2264 28.6278 14.3326 28.734C14.4389 28.8403 14.583 28.9 14.7333 28.9H23.8C23.9503 28.9 24.0944 28.8403 24.2007 28.734C24.307 28.6278 24.3667 28.4836 24.3667 28.3333C24.3667 28.1831 24.307 28.0389 24.2007 27.9326C24.0944 27.8264 23.9503 27.7667 23.8 27.7667ZM23.8 24.3667H14.7333C14.583 24.3667 14.4389 24.4264 14.3326 24.5326C14.2264 24.6389 14.1667 24.7831 14.1667 24.9333C14.1667 25.0836 14.2264 25.2278 14.3326 25.334C14.4389 25.4403 14.583 25.5 14.7333 25.5H23.8C23.9503 25.5 24.0944 25.4403 24.2007 25.334C24.307 25.2278 24.3667 25.0836 24.3667 24.9333C24.3667 24.7831 24.307 24.6389 24.2007 24.5326C24.0944 24.4264 23.9503 24.3667 23.8 24.3667ZM18.9442 9.06667H19.6945L18.7499 11.7827C18.672 11.9917 18.6728 12.2219 18.752 12.4304C18.8312 12.6389 18.9835 12.8115 19.1805 12.916C19.3206 12.9938 19.4781 13.035 19.6384 13.0356C19.7785 13.0351 19.9166 13.0025 20.042 12.9402C20.1675 12.8779 20.277 12.7876 20.362 12.6763L24.1417 7.95374C24.264 7.79613 24.3397 7.60735 24.3601 7.40887C24.3805 7.21039 24.3448 7.01017 24.2571 6.83096C24.1694 6.65175 24.0332 6.50074 23.8639 6.3951C23.6947 6.28945 23.4992 6.23341 23.2996 6.23334H22.8588L23.9485 4.46421C24.0493 4.30286 24.1051 4.11746 24.1101 3.92726C24.1151 3.73705 24.0691 3.54898 23.9769 3.38256C23.8847 3.21613 23.7496 3.07743 23.5856 2.98086C23.4217 2.88428 23.2349 2.83334 23.0446 2.83334H20.57C20.3513 2.8318 20.1375 2.89827 19.9582 3.02354C19.7789 3.14882 19.643 3.32671 19.5693 3.53261L17.9339 7.66361C17.8805 7.82377 17.8659 7.99433 17.8913 8.16124C17.9167 8.32815 17.9814 8.48664 18.0801 8.62365C18.1787 8.76066 18.3085 8.87227 18.4588 8.94929C18.609 9.02631 18.7754 9.06655 18.9442 9.06667ZM20.6142 3.96667H22.9234L21.3633 6.50307C21.3106 6.58883 21.2816 6.68709 21.2794 6.78775C21.2773 6.88841 21.3019 6.98783 21.3509 7.07578C21.3999 7.16374 21.4715 7.23705 21.5582 7.28818C21.645 7.33931 21.7438 7.3664 21.8444 7.36667H23.1597L20.1994 11.0659L21.0262 8.68587C21.0558 8.60052 21.0646 8.50932 21.0518 8.41987C21.039 8.33043 21.0051 8.24533 20.9527 8.17169C20.9004 8.09805 20.8312 8.03799 20.7509 7.99653C20.6706 7.95507 20.5816 7.9334 20.4912 7.93334H19.044L20.6142 3.96667ZM12.3029 13.0333H12.4548C13.5391 13.044 14.5855 12.6351 15.3754 11.8921C15.7063 11.5814 15.9706 11.2069 16.1525 10.791C16.3343 10.3752 16.4299 9.92681 16.4333 9.47297C16.4333 6.54897 13.3512 3.97631 12.0258 3.01297C11.894 2.91711 11.7391 2.85786 11.577 2.84123C11.4149 2.82461 11.2512 2.85122 11.1027 2.91834C10.9618 2.97895 10.8398 3.07629 10.7493 3.2002C10.6589 3.32411 10.6035 3.47003 10.5887 3.62271C10.4511 4.64934 10.0814 5.63111 9.50753 6.49344C9.1152 7.11109 8.81117 7.78058 8.60427 8.48244C8.4777 8.99741 8.46841 9.53422 8.57709 10.0533C8.68576 10.5723 8.90962 11.0603 9.23213 11.4812C9.59502 11.9535 10.0594 12.3381 10.5909 12.6067C11.1224 12.8754 11.7075 13.0212 12.3029 13.0333ZM9.70417 8.75671C9.8876 8.15683 10.1522 7.58486 10.4907 7.05671C11.0607 6.17177 11.4582 5.18696 11.662 4.15424C12.8129 5.04334 15.3 7.22841 15.3 9.47297C15.296 9.77474 15.2308 10.0726 15.1084 10.3484C14.986 10.6243 14.8088 10.8724 14.5877 11.0778C14.2863 11.3565 13.9325 11.5728 13.5469 11.7139C13.1614 11.855 12.7516 11.9183 12.3414 11.9C11.9149 11.8928 11.4954 11.7901 11.1138 11.5993C10.7322 11.4086 10.3983 11.1347 10.1365 10.7978C9.9159 10.5113 9.7625 10.1789 9.68766 9.82508C9.61282 9.47128 9.61846 9.10519 9.70417 8.75387V8.75671Z" fill="#C59E52"/>
</svg>
